<?xml version="1.0" encoding="UTF-8" standalone="no"?>
<svg
   xmlns:dc="http://purl.org/dc/elements/1.1/"
   xmlns:cc="http://creativecommons.org/ns#"
   xmlns:rdf="http://www.w3.org/1999/02/22-rdf-syntax-ns#"
   xmlns:svg="http://www.w3.org/2000/svg"
   xmlns="http://www.w3.org/2000/svg"
   xmlns:xlink="http://www.w3.org/1999/xlink"
   xmlns:sodipodi="http://sodipodi.sourceforge.net/DTD/sodipodi-0.dtd"
   xmlns:inkscape="http://www.inkscape.org/namespaces/inkscape"
   sodipodi:docname="Janex_optimized_clean.svg"
   inkscape:version="1.0.2 (e86c870879, 2021-01-15, custom)"
   id="svg5306"
   version="1.1"
   viewBox="0 0 143 50"
   preserveAspectRatio="none"
   height="50mm"
   width="143mm">
  <defs
     id="defs5300">
    <filter
       inkscape:menu-tooltip="Cut out, add inner shadow and colorize some parts of an image"
       inkscape:menu="Shadows and Glows"
       style="color-interpolation-filters:sRGB"
       inkscape:label="Emergence"
       id="filter14188">
      <feGaussianBlur
         in="SourceGraphic"
         stdDeviation="6"
         result="blur"
         id="feGaussianBlur14178" />
      <feDiffuseLighting
         diffuseConstant="1"
         surfaceScale="10"
         lighting-color="#ffffff"
         result="diffuse"
         id="feDiffuseLighting14182">
        <feDistantLight
           elevation="25"
           azimuth="235"
           id="feDistantLight14180" />
      </feDiffuseLighting>
      <feComposite
         k4="0"
         k3="0"
         k2="0"
         in="diffuse"
         in2="diffuse"
         operator="arithmetic"
         k1="1"
         result="composite1"
         id="feComposite14184" />
      <feComposite
         k4="0"
         k2="0"
         in="composite1"
         in2="SourceGraphic"
         k1="1"
         operator="arithmetic"
         k3="1"
         result="fbSourceGraphic"
         id="feComposite14186" />
      <feColorMatrix
         id="feColorMatrix5658"
         values="0 0 0 -1 0 0 0 0 -1 0 0 0 0 -1 0 0 0 0 1 0"
         in="fbSourceGraphic"
         result="fbSourceGraphicAlpha" />
      <feColorMatrix
         in="fbSourceGraphic"
         result="result1"
         values="0 0 0 0 0 0 0 0 0 0 0 0 0 0 0 0.21 0.72 0.07 0 0 "
         id="feColorMatrix5660" />
      <feColorMatrix
         result="result9"
         values="1 0 0 0 0 0 1 0 0 0 0 0 1 0 0 0 0 0 2 0 "
         id="feColorMatrix5662" />
      <feComposite
         result="result4"
         operator="in"
         in="fbSourceGraphic"
         id="feComposite5664"
         in2="result9" />
      <feFlood
         flood-color="rgb(0,0,0)"
         result="result2"
         id="feFlood5666" />
      <feComposite
         result="result10"
         operator="in"
         id="feComposite5668"
         in2="result9" />
      <feComposite
         operator="atop"
         id="feComposite5670"
         in2="result4" />
      <feGaussianBlur
         result="result8"
         stdDeviation="3"
         id="feGaussianBlur5672" />
      <feOffset
         in="result8"
         result="result3"
         dy="3"
         dx="3"
         id="feOffset5674" />
      <feFlood
         result="result5"
         flood-color="rgb(219,173,62)"
         flood-opacity="1"
         id="feFlood5676" />
      <feMerge
         result="result6"
         id="feMerge5678">
        <feMergeNode
           in="result5"
           id="feMergeNode5680" />
        <feMergeNode
           in="result3"
           id="feMergeNode5682" />
        <feMergeNode
           in="result4"
           id="feMergeNode5684" />
      </feMerge>
      <feComposite
         result="result7"
         operator="in"
         id="feComposite5686"
         in2="fbSourceGraphic" />
    </filter>
    <linearGradient
       gradientTransform="matrix(6.9787437,0,0,6.5577186,45.14631,-151.59367)"
       inkscape:collect="always"
       xlink:href="#linearGradient6922"
       id="linearGradient6924"
       x1="76.029068"
       y1="38.394855"
       x2="97.251404"
       y2="36.21014"
       gradientUnits="userSpaceOnUse" />
    <linearGradient
       inkscape:collect="always"
       id="linearGradient6922">
      <stop
         style="stop-color:#a03b14;stop-opacity:1;"
         offset="0"
         id="stop6918" />
      <stop
         style="stop-color:#da4d1a;stop-opacity:1"
         offset="1"
         id="stop6920" />
    </linearGradient>
    <linearGradient
       gradientTransform="matrix(6.9787437,0,0,6.5577186,42.190934,-133.86139)"
       inkscape:collect="always"
       xlink:href="#linearGradient6922"
       id="linearGradient6936"
       x1="78.671745"
       y1="36.462563"
       x2="109.23151"
       y2="34.129082"
       gradientUnits="userSpaceOnUse" />
    <linearGradient
       gradientTransform="matrix(6.9787437,0,0,6.5577186,42.190934,-125.86139)"
       inkscape:collect="always"
       xlink:href="#linearGradient6922"
       id="linearGradient6948"
       x1="91.521996"
       y1="35.003193"
       x2="115.25862"
       y2="34.316875"
       gradientUnits="userSpaceOnUse" />
    <linearGradient
       gradientTransform="matrix(6.9787437,0,0,6.5577186,42.190934,-133.86139)"
       inkscape:collect="always"
       xlink:href="#linearGradient6922"
       id="linearGradient6960"
       x1="139.58826"
       y1="39.38715"
       x2="109.72167"
       y2="34.857452"
       gradientUnits="userSpaceOnUse" />
    <linearGradient
       gradientTransform="matrix(6.9787437,0,0,6.5577186,42.190934,-143.86139)"
       inkscape:collect="always"
       xlink:href="#linearGradient6922"
       id="linearGradient6972"
       x1="136.43753"
       y1="38.875763"
       x2="117.7885"
       y2="36.07877"
       gradientUnits="userSpaceOnUse" />
    <filter
       inkscape:label="Garden of Delights"
       inkscape:menu="Overlays"
       inkscape:menu-tooltip="Phantasmagorical turbulent wisps, like Hieronymus Bosch's Garden of Delights"
       style="color-interpolation-filters:sRGB"
       id="filter5179"
       x="-0.15000001"
       width="1.3"
       y="-0.15000001"
       height="1.3">
      <feGaussianBlur
         result="result0"
         in="SourceAlpha"
         stdDeviation="4"
         id="feGaussianBlur5173" />
      <feOffset
         dx="5"
         dy="5"
         result="result4"
         id="feOffset5175" />
      <feComposite
         in="SourceGraphic"
         in2="result4"
         operator="xor"
         result="fbSourceGraphic"
         id="feComposite5177" />
      <feColorMatrix
         result="fbSourceGraphicAlpha"
         in="fbSourceGraphic"
         values="0 0 0 -1 0 0 0 0 -1 0 0 0 0 -1 0 0 0 0 1 0"
         id="feColorMatrix5189" />
      <feTurbulence
         id="feTurbulence5191"
         result="result1"
         baseFrequency="0.005 0.01"
         numOctaves="8"
         type="fractalNoise"
         seed="20" />
      <feColorMatrix
         id="feColorMatrix5193"
         result="result3"
         values="0 0 0 0 1 0 0 0 0 1 0 0 0 0 1 0 0 0 1.2 -0.4 " />
      <feConvolveMatrix
         id="feConvolveMatrix5195"
         order="3 3"
         kernelMatrix="3 0 0 0 2 0 0 0 -1 "
         targetX="1"
         targetY="1"
         divisor="2"
         result="result8" />
      <feComposite
         in2="fbSourceGraphic"
         id="feComposite5197"
         result="fbSourceGraphic"
         operator="atop"
         in="result8" />
      <feTurbulence
         id="feTurbulence5199"
         baseFrequency="0.027 0.025"
         numOctaves="7"
         type="turbulence"
         seed="20" />
      <feColorMatrix
         id="feColorMatrix5201"
         values="1 0 0 0 0 0 1 0 0 0 0 0 1 0 0 0 0 0 4.7 -2 "
         result="result5" />
      <feComposite
         in2="result5"
         id="feComposite5203"
         operator="in"
         in="fbSourceGraphic"
         result="result6" />
      <feDisplacementMap
         in2="result5"
         id="feDisplacementMap5205"
         result="result4"
         scale="48"
         yChannelSelector="A"
         xChannelSelector="R"
         in="result6" />
      <feFlood
         id="feFlood5207"
         flood-color="rgb(222,217,217)"
         flood-opacity="1"
         result="result9" />
      <feComposite
         in2="result4"
         id="feComposite5209"
         operator="in"
         result="result2" />
      <feComposite
         in2="fbSourceGraphic"
         id="feComposite5211"
         operator="atop"
         in="result2"
         result="result91" />
      <feBlend
         in2="result91"
         id="feBlend5213"
         mode="darken" />
    </filter>
    <filter
       inkscape:label="Rough and Dilate"
       inkscape:menu="Distort"
       inkscape:menu-tooltip="Create a turbulent contour around"
       style="color-interpolation-filters:sRGB"
       id="filter934"
       y="-0.2"
       height="1.4">
      <feGaussianBlur
         result="result0"
         in="SourceAlpha"
         stdDeviation="4"
         id="feGaussianBlur928" />
      <feOffset
         dx="5"
         dy="5"
         result="result4"
         id="feOffset930" />
      <feComposite
         in="SourceGraphic"
         in2="result4"
         operator="xor"
         result="fbSourceGraphic"
         id="feComposite932" />
      <feColorMatrix
         result="fbSourceGraphicAlpha"
         in="fbSourceGraphic"
         values="0 0 0 -1 0 0 0 0 -1 0 0 0 0 -1 0 0 0 0 1 0"
         id="feColorMatrix944" />
      <feMorphology
         id="feMorphology946"
         radius="7"
         operator="dilate"
         result="result8"
         in="fbSourceGraphic" />
      <feComposite
         in2="result8"
         id="feComposite948"
         result="result10"
         in="fbSourceGraphic"
         operator="arithmetic"
         k1="0.5"
         k3="0.5"
         k2="0"
         k4="0" />
      <feTurbulence
         id="feTurbulence950"
         result="result11"
         type="fractalNoise"
         numOctaves="3"
         baseFrequency="0.07" />
      <feDisplacementMap
         in2="result11"
         id="feDisplacementMap952"
         result="result12"
         in="result10"
         xChannelSelector="R"
         scale="10"
         yChannelSelector="A" />
      <feComposite
         in2="result12"
         id="feComposite954"
         operator="arithmetic"
         result="result13"
         in="fbSourceGraphic"
         k1="0.25"
         k2="0.25"
         k3="0.75"
         k4="0" />
    </filter>
  </defs>
  <sodipodi:namedview
     inkscape:window-maximized="1"
     inkscape:window-y="-8"
     inkscape:window-x="-8"
     inkscape:window-height="1017"
     inkscape:window-width="1920"
     showgrid="false"
     inkscape:document-rotation="0"
     inkscape:current-layer="svg5306"
     inkscape:document-units="mm"
     inkscape:cy="81.614544"
     inkscape:cx="222.8818"
     inkscape:zoom="1.8332039"
     inkscape:pageshadow="2"
     inkscape:pageopacity="0.0"
     borderopacity="1.0"
     bordercolor="#666666"
     pagecolor="#ffffff"
     id="base" />
  <metadata
     id="metadata5303">
    <rdf:RDF>
      <cc:Work
         rdf:about="">
        <dc:format>image/svg+xml</dc:format>
        <dc:type
           rdf:resource="http://purl.org/dc/dcmitype/StillImage" />
        <dc:title></dc:title>
      </cc:Work>
    </rdf:RDF>
  </metadata>
  <a
     id="a896">
    <ellipse
       transform="matrix(0.26458333,0,0,0.26458333,-17.174003,-3.891578)"
       ry="74.094521"
       rx="256.08105"
       cy="96.322876"
       cx="332.90536"
       id="ellipse887"
       style="display:inline;opacity:1;fill:#d4d4d4;fill-opacity:0.917647;stroke-width:0.911175;stroke-linecap:round;paint-order:stroke fill markers;filter:url(#filter934)"
       inkscape:label="Janex Background" />
    <g
       style="display:inline;filter:url(#filter14188)"
       id="g4321"
       transform="matrix(0.17905225,0,0,0.17905225,-65.294861,2.838832)"
       inkscape:label="g4321">
      <path
         style="display:inline;opacity:1;fill:url(#linearGradient6924);fill-opacity:1;stroke:#000000;stroke-width:1.33269;stroke-linecap:butt;stroke-linejoin:miter;stroke-miterlimit:4;stroke-dasharray:none;stroke-opacity:1;paint-order:stroke fill markers"
         d="m 628.0831,92.689962 c 0,0 -16.95635,15.159898 -21.97742,17.867038 -2.87004,1.54739 -14.33129,9.80107 -15.55703,0.15467 -0.65856,-5.18222 10.3153,-27.884188 18.10871,-39.059977 7.33258,-10.514945 20.67103,-24.680583 34.48888,-33.877773 5.92651,-3.944676 16.38433,-8.753908 23.67845,-11.055046 7.29413,-2.301138 29.41309,-8.281578 23.81585,12.137893 -5.59724,20.419491 -47.74124,72.705713 -47.74124,72.705713 l 18.98008,-6.82363 -0.54213,4.34855 -29.30322,12.06604 c 0,0 -38.47747,36.09577 -47.41193,43.08201 -9.6481,7.5443 -15.55702,12.14339 -21.73045,9.20422 -8.47168,-4.03334 9.74991,-20.86156 12.18223,-23.20394 2.43234,-2.34238 28.85176,-20.2632 47.74117,-29.39167 8.6428,-4.1767 51.51993,-70.399592 53.33846,-74.56201 1.81848,-4.162418 9.17708,-14.99983 -8.23127,-8.044041 -28.06852,11.215248 -53.22903,46.531443 -55.1493,55.844173 -1.73614,8.419788 0.2041,8.917058 5.31621,3.3275 5.11204,-5.58955 9.9939,-4.71974 9.9939,-4.71974 z"
         id="Letter_J"
         sodipodi:nodetypes="csssszsccccsszszsszcc" />
      <path
         id="Letter_a"
         style="display:inline;opacity:1;fill:url(#linearGradient6936);fill-opacity:1;stroke:#000000;stroke-width:1.33269;stroke-linecap:butt;stroke-linejoin:miter;stroke-miterlimit:4;stroke-dasharray:none;stroke-opacity:1;paint-order:stroke fill markers"
         d="m 746.48263,64.574975 c -2.73478,-0.04899 -5.71118,0.330491 -7.9621,0.747917 -11.69779,2.169342 -48.52758,17.729097 -60.30099,31.175377 -5.1687,5.903041 -4.63679,15.484251 -1.74598,22.314981 3.63694,8.59392 12.60411,7.03125 20.67124,0.94219 8.22152,-4.53348 14.20354,-10.43313 23.739,-16.16093 -1.8746,6.29921 -6.89344,11.73145 -7.74123,17.51662 -1.65747,6.8524 5.08319,9.13097 16.64644,4.04721 10.22707,-4.49636 29.80059,-18.92496 29.80059,-18.92496 l 0.11709,-4.48378 c 0,0 -12.97701,7.51179 -20.02248,9.51605 -6.43509,1.83065 -11.14759,-0.98005 -7.56761,-8.53264 2.44506,-5.158381 7.68982,-9.438601 12.33925,-13.016381 4.12768,-3.17632 5.21153,-5.36785 3.84254,-9.517661 -0.53807,-1.631323 -1.51458,-4.921893 -1.51458,-4.921893 0,0 8.97836,-0.500208 6.98553,-7.54759 -0.65516,-2.317351 -3.77099,-3.090864 -7.28702,-3.154444 z m -5.32739,12.72811 c 0,0 -16.89796,17.942114 -36.13603,29.468865 -4.95157,2.9668 -16.90177,11.67559 -19.26005,4.48704 -2.91729,-8.89228 6.51222,-12.668211 12.51111,-16.862661 11.86211,-8.29408 42.88497,-17.093244 42.88497,-17.093244 z"
         sodipodi:nodetypes="sssscccsccsssscsscsssc" />
      <path
         style="display:inline;opacity:1;fill:url(#linearGradient6948);fill-opacity:1;stroke:#000000;stroke-width:1.33269;stroke-linecap:butt;stroke-linejoin:miter;stroke-miterlimit:4;stroke-dasharray:none;stroke-opacity:1;paint-order:stroke fill markers"
         d="m 844.36355,101.10846 -0.32966,5.17673 -23.54135,14.85054 c -17.62511,11.94113 -26.3719,4.11492 -20.37534,-5.56895 5.99675,-9.68387 12.29274,-16.057412 22.68006,-24.750901 -10.41057,3.19394 -24.29251,12.297571 -38.68687,24.905581 -15.02112,13.15719 -17.54174,7.48037 -17.24556,-6.41612 0.1885,-8.83082 11.64838,-18.791061 11.64838,-18.791061 0,0 9.17168,-8.816217 14.81618,-11.764453 9.10259,-4.754285 19.11245,-3.149589 10.86528,4.7955 -6.33836,6.106243 -18.73022,12.853623 -20.74267,16.397442 -2.83151,4.985842 -2.39508,8.102772 3.62167,3.867342 6.23455,-4.388752 16.78237,-12.756561 25.57383,-18.161022 11.22076,-6.897746 25.4214,-13.353239 26.88089,-13.796875 6.37854,-1.938747 5.21172,0.213766 6.26818,6.352301 0.33797,1.963528 -0.53059,3.975412 -3.08983,6.156748 -3.10659,2.647338 -6.57481,5.217077 -6.57481,5.217077 0,0 -10.87193,7.68598 -14.98094,12.684831 -6.33336,7.70493 -3.34283,11.73555 4.4649,8.79096 6.77171,-2.55388 18.74733,-9.94567 18.74733,-9.94567 z"
         id="Letter_n"
         sodipodi:nodetypes="ccczcsscsssssssscssc" />
      <path
         id="Letter_e"
         style="display:inline;opacity:1;fill:url(#linearGradient6960);fill-opacity:1;stroke:#000000;stroke-width:1.33269;stroke-linecap:butt;stroke-linejoin:miter;stroke-miterlimit:4;stroke-dasharray:none;stroke-opacity:1;paint-order:stroke fill markers"
         d="m 907.39343,67.182547 c -18.47297,0.551178 -38.77224,10.766604 -52.03382,25.268422 -7.7159,9.546911 -12.38897,22.689391 -5.47096,30.299091 18.13652,14.64608 44.87516,-7.08178 59.8345,-17.28271 v -5.141 c -12.1808,7.4555 -26.40659,16.92128 -37.48402,15.75077 -11.07735,-1.17047 -8.03218,-13.34418 -8.03218,-13.34418 0,0 7.0291,-0.10984 20.6045,-5.687871 13.57538,-5.57786 25.27963,-12.61942 28.1705,-18.705888 2.8909,-6.086445 1.99411,-11.363743 -5.58852,-11.156634 z m -10.09545,8.820893 c 4.75952,-0.15994 5.05778,3.517298 -5.28694,10.530689 -17.42284,11.81202 -24.66105,11.38563 -24.66105,11.38563 0,0 2.4695,-6.53155 15.89258,-16.03903 5.45318,-3.862417 10.79892,-5.767901 14.05541,-5.877289 z" />
      <path
         style="display:inline;opacity:1;fill:url(#linearGradient6972);fill-opacity:1;stroke:#000000;stroke-width:1.33269;stroke-linecap:butt;stroke-linejoin:miter;stroke-miterlimit:4;stroke-dasharray:none;stroke-opacity:1;paint-order:stroke fill markers"
         d="m 933.12021,73.718509 c 29.73831,-19.21388 17.87812,2.13107 15.14707,14.53714 50.62394,-35.994971 30.92563,-6.66996 19.30947,-3.37992 -1.8687,0.4773 -3.48166,0.3138 -4.42353,-1.53138 l -16.76262,14.43875 c -4.59924,25.780591 12.50114,10.779781 25.60962,3.281541 v 5.25045 c -20.5257,16.6807 -43.78549,39.42225 -40.97533,4.37538 -19.88458,15.76031 -40.6921,24.61043 -15.13304,0.65632 5.82046,1.37421 11.64083,-6.28563 17.46111,-9.62585 l 3.25948,-19.907971 c -4.42089,0.34077 -8.16072,2.60713 -10.69779,4.35094 -14.03084,9.64397 -13.69314,2.79548 7.20556,-12.4454 z"
         id="Letter_x"
         sodipodi:nodetypes="cccccccccccsc" />
    </g>
  </a>
  <g
     id="layer1"
     inkscape:groupmode="layer"
     inkscape:label="Warstwa 1" />
</svg>
