<?xml version="1.0" encoding="UTF-8" standalone="no"?>
<svg
   xmlns:dc="http://purl.org/dc/elements/1.1/"
   xmlns:cc="http://creativecommons.org/ns#"
   xmlns:rdf="http://www.w3.org/1999/02/22-rdf-syntax-ns#"
   xmlns:svg="http://www.w3.org/2000/svg"
   xmlns="http://www.w3.org/2000/svg"
   xmlns:sodipodi="http://sodipodi.sourceforge.net/DTD/sodipodi-0.dtd"
   xmlns:inkscape="http://www.inkscape.org/namespaces/inkscape"
   width="212mm"
   height="163mm"
   viewBox="0 0 212 163"
   version="1.1"
   id="svg421"
   inkscape:version="1.0.2 (e86c870879, 2021-01-15, custom)"
   sodipodi:docname="meat2.svg">
  <defs
     id="defs415" />
  <sodipodi:namedview
     id="base"
     pagecolor="#ffffff"
     bordercolor="#666666"
     borderopacity="1.0"
     inkscape:pageopacity="0.0"
     inkscape:pageshadow="2"
     inkscape:zoom="0.49312388"
     inkscape:cx="155.39057"
     inkscape:cy="479.88256"
     inkscape:document-units="mm"
     inkscape:current-layer="layer1"
     inkscape:document-rotation="0"
     showgrid="false"
     inkscape:window-width="1920"
     inkscape:window-height="1017"
     inkscape:window-x="-8"
     inkscape:window-y="-8"
     inkscape:window-maximized="1" />
  <metadata
     id="metadata418">
    <rdf:RDF>
      <cc:Work
         rdf:about="">
        <dc:format>image/svg+xml</dc:format>
        <dc:type
           rdf:resource="http://purl.org/dc/dcmitype/StillImage" />
        <dc:title></dc:title>
      </cc:Work>
    </rdf:RDF>
  </metadata>
  <g
     inkscape:label="Warstwa 1"
     inkscape:groupmode="layer"
     id="layer1">
    <g
       id="g387"
       transform="matrix(0.26458333,0,0,0.26458333,-334.56081,258.77839)"
       style="image-rendering:optimizeSpeed">
      <path
         class="st9"
         d="m 1332.9251,-586.26631 c 6.7,13.2 13.3,26.5 20,39.7 12.5,24.6 23.5,50.1 38.9,73.2 8.1,12.1 19.3,20 33.2,23.9 12.9,3.6 26.1,4.6 39.5,5.6 33.2,2.6 63.7,-6.8 94.1,-18.3 27.7,-10.5 55.7,-20 84.1,-28.5 33.4,-10 66.9,-19.2 100.8,-27.4 15.5,-3.7 31.2,-6.2 46.5,-11 21.5,-6.7 41.9,-15.7 61.2,-27.2 23.3,-13.8 46.5,-27.6 68.7,-43 11,-7.6 21.6,-15.7 31.4,-24.8 15.2,-14.3 33.3,-24 52.6,-31.7 15.3,-6 29.5,-13.8 40.4,-26.6 8.3,-9.7 14.9,-20.1 14.4,-33.5 -0.3,-6.7 -2.4,-13.1 -4.9,-19.3 -0.9,-2.1 -2.2,-4.1 -1.9,-6.6 -0.8,-0.8 -1.7,-1.6 -2.3,-2.5 -12.4,-19.2 -30.5,-31.7 -50.2,-42.2 -14.7,-7.8 -29.7,-14.8 -45,-21.1 -40.6,-16.6 -78.7,-37.6 -113.4,-64.6 -11.6,-9 -24.4,-15.7 -38.2,-20.7 -27.3,-9.8 -55.7,-14.5 -84.4,-17.6 -50.3,-5.5 -99,-17.4 -147,-32.7 -14.1,-4.5 -27.8,-10.4 -42.4,-13.2 -30.7,-5.8 -61.7,-8.1 -92.8,-10.5 -24.9,-1.9 -50.1,-1 -74.8,-6 -1.8,-0.4 -3.8,-0.6 -5,0.6 -3.6,3.8 -9,5 -12.5,9 -6.9,8 -13.5,16.3 -16.4,26.6 -6.8,24 -18.4,45.8 -29.5,67.9 -7.9,15.6 -15.8,31.2 -20.4,48.2 -10.7,39.8 -9.7,79.5 1,119.1 7.5,27.4 19.8,52.8 33.5,77.6 6.6,11.9 14.2,23.3 17.9,36.7 1.4,-1.8 2.2,-0.3 2.9,0.9 z m 525.4,-234.7 c 8.7,-1.6 17.3,-2.1 26.4,0.2 41.5,10.5 78.5,29.9 112.5,55.5 6.9,5.2 13.9,10.5 20.7,15.9 6.5,5.1 11.4,11.7 14.8,19.1 3.5,7.5 1.8,9.9 -6.5,9.9 -0.9,0 -1.7,0 -2.6,0 -12.5,-0.7 -24.5,-3.9 -36.7,-6.7 -17.3,-4 -33.6,-11 -50.6,-16 -13.7,-4 -28,-4.4 -41.9,-6.9 -12.3,-2.2 -21.5,-7.3 -27.2,-19.1 -5.6,-11.6 -8.8,-23.9 -12.9,-36 -0.6,-1.9 -1,-3.9 -1.7,-5.8 -3,-7.8 -2.9,-8.5 5.7,-10.1 z m -366.1,-109.6 c 15.4,5 30.6,11 46.8,13.4 10.9,1.6 21.7,3.7 32.6,4.3 15.1,0.8 29.9,3.2 44.7,5.7 18.5,3.2 37.2,5.6 55.5,10.2 25.4,6.3 50.4,13.9 74.7,23.4 24.2,9.5 43.7,25.1 58.6,46.5 0.5,0.7 1.2,1.2 1.8,1.8 0,-2 -0.1,-4.1 0,-6.1 0.2,-5.7 3.2,-10.1 7.6,-11.2 6.3,-1.6 10.2,0.4 13.8,5.9 8.7,13.2 12.6,28.5 18.4,42.9 1.5,3.8 3.3,7.4 5,11.1 1,2.1 2.3,4.1 2.2,6.5 -0.1,3.6 1,7.4 -3,10.2 -4.4,3 -7.6,1 -10.9,-1.6 0.8,4.2 2.2,8.1 0.8,12.8 -2.2,7.4 -6.3,11.7 -13.8,14.1 -12.3,4 -24.8,3.4 -37.2,2.4 -22.5,-1.8 -44.5,-7.3 -66.6,-11.6 -27.7,-5.5 -54.6,-13.5 -80.8,-23.9 -26.8,-10.6 -52.3,-23.7 -76.1,-40.3 -25.1,-17.6 -48.7,-36.8 -69.1,-59.6 -11.8,-13.2 -22.7,-27.1 -34.1,-40.6 -2.8,-3.3 -5.7,-6.6 -9.5,-8.9 -2.2,-1.4 -4.3,-2.9 -5.7,-5.6 14.7,-6.3 29.1,-6.7 44.3,-1.8 z m -166.2,199.4 c -2.1,-11.7 -5.9,-23 -7.5,-34.8 -1.6,-12.3 -4.7,-24.5 -1.3,-37.1 1.3,-4.7 0.2,-9.8 1,-14.7 3,-19.1 12.1,-35.6 21.9,-51.8 11.9,-19.7 22.3,-40.1 28.5,-62.4 0.5,-1.9 1.3,-3.9 3.1,-5.1 v 0 c 0,0 0,0 0,0 -3.2,-3.8 -4.8,-7.7 -1.6,-12.4 2.5,-3.7 6,-5.2 10.3,-5 5.5,0.4 8.6,3.7 10.5,8.8 1.2,3.4 1,7.4 3.5,10.4 1.2,-1.7 2.8,-1.5 4.7,-1.2 13.2,2.5 24.4,9.3 34.8,17.3 24.1,18.4 42.5,41.8 57.7,67.9 0.7,1.2 1.6,2.3 2.5,3.5 0,0 0,0 0,0 0,0 0,0 0,0 -0.3,-4 0.6,-7.4 3.9,-10.1 3.9,-3.1 7.8,-3.1 11.7,0.2 2.8,2.3 4.5,5.4 6.2,8.4 7.4,12.9 18.6,22.1 29.6,31.5 17.9,15.3 38.1,27.3 57.9,39.9 11.1,7 23.3,11.8 35.3,16.9 13.1,5.5 25.8,12 38.9,17.2 4.6,1.8 9.1,3.8 13.5,5.9 2.3,1.1 4.7,2.4 6.7,3.9 2.6,2 3.1,4.9 2.2,7.9 -0.9,3.1 -3.7,2.1 -5.9,2.3 -0.9,0.1 -1.7,0.1 -2.6,0.1 18.6,4 35.9,13 55,15.3 7.5,0.9 15,1.2 22.5,2 28.1,2.6 56.3,1.9 84.5,1.8 5.9,0 11.5,1.4 17.3,1.9 1.5,0.1 3,0.8 3.2,2.4 0.2,1.6 -1.1,2.7 -2.4,3.4 -3.3,1.8 -6.6,3.7 -10.1,5.2 -12.8,5.5 -25.8,10.7 -39,15 -26.3,8.6 -51.7,19.3 -76.2,32.3 -15.7,8.3 -30.2,18.4 -45.5,27.5 -16.5,9.8 -33.3,19.2 -52,24.3 -15.9,4.3 -32,5.2 -48.2,1.9 -0.6,-0.1 -1.2,-0.1 -1.7,-0.3 -12.2,-3.6 -14.7,-8.5 -9.1,-19.8 4.8,-9.6 10.1,-19 15.8,-28.1 9.4,-14.9 15.2,-31.3 21.3,-47.6 2.6,-6.8 4.8,-13.7 7.4,-20.5 2.8,-7.4 1.5,-14 -6.4,-20.6 -9.1,-7.6 -18.1,-15.6 -23.5,-26.7 -1.8,-3.7 -3.8,-7.4 -0.4,-11.2 0,0 0,0 0,0 -11.5,-7.2 -23,-14.5 -34.7,-21.4 -23.4,-14 -46.3,-28.7 -66.8,-46.8 0,0 0,0 0,0 0,0 0,0 0,0 2.5,9 8.1,16.6 12,25 7.4,16.1 12.3,32.5 10.8,50.3 -1.1,12.7 -3.6,25.1 -7.4,37.3 -5.9,19.2 -14.9,37.1 -23.3,55.2 -8.6,18.7 -17.1,37.4 -22.5,57.3 -0.5,2 -1,3.9 -0.8,6 23,-23.9 43.6,-49.3 53.2,-81.8 2.1,-7.1 3.2,-14.2 3,-21.5 -0.1,-3.1 0.6,-5.6 2.8,-7.9 7.7,-8 13.6,-17.4 19.3,-26.9 3.6,-6 7.8,-11.6 13.2,-16.2 4.2,-3.6 6,-3.6 9.5,0.7 11.8,14.8 18.7,31.3 16.9,50.8 -1,11 -3,21.8 -5.6,32.6 -1.7,7 -2.7,14.3 -3.5,21.5 -1,9.4 -5.1,17 -11.4,23.9 -11.7,12.7 -20.8,27.3 -28.7,42.6 -3,5.8 -4.7,11.8 -4.4,18.4 0.3,6.2 3,10.4 8.4,13.2 7.6,4 15.6,6.5 24.2,6.1 17.9,-0.8 35.1,-4 51.7,-11.2 22.2,-9.7 43.5,-20.9 65,-32 40.5,-20.8 82.9,-36.7 125.9,-51.2 37.2,-12.5 73.5,-27.7 108.6,-45.4 10.4,-5.2 20,-11.9 30.6,-16.7 10.6,-4.8 21.5,-6.9 33.1,-5.7 1.4,0.2 2.9,0.2 4.2,1.5 0.6,2.6 -1.9,3.1 -3.2,4.3 -16.4,14.9 -33.5,29 -52.6,40.3 -17.1,10.2 -35.3,17.9 -54,24.5 -24.5,8.7 -46,22 -65.7,38.7 -18.5,15.7 -38.9,28.5 -61.1,38.6 -21.5,9.7 -42.8,19.7 -63.4,31.3 -14.8,8.3 -30.6,14 -46.9,18.7 -36,10.4 -71.6,22.3 -107.9,31.8 -24.7,6.4 -49.7,8.6 -75.2,8.1 -19.7,-0.4 -30.4,-12.2 -39.6,-27.1 -1.4,-2.4 -1.1,-5.1 -0.9,-7.7 1.2,-22.1 8.1,-42.2 21.8,-59.7 1.4,-1.8 2.8,-3.7 4.2,-5.5 -10.8,0.2 -21.4,-1.2 -31.9,-3.6 -13.5,-3.2 -23.8,-11.1 -29.4,-23.8 -5.9,-13.3 -10.9,-26.9 -15.9,-40.5 -4.5,-12.4 -11.2,-23.6 -17.9,-34.9 -10.3,-18.1 -18,-36.6 -21.7,-56.9 z"
         id="path302"
         style="fill:#d55355;fill-opacity:1" />
      <path
         class="st3"
         d="m 2062.7251,-724.06631 c -0.3,-8.9 -3.3,-14.2 -10.9,-17.7 0,0 0,0 0,0 -0.3,2.5 1.1,4.5 1.9,6.6 2.5,6.2 4.6,12.6 4.9,19.3 0.6,13.4 -6.1,23.9 -14.4,33.5 -10.9,12.8 -25.1,20.6 -40.4,26.6 -19.3,7.7 -37.4,17.4 -52.6,31.7 -9.8,9.2 -20.4,17.2 -31.4,24.8 -22.2,15.4 -45.4,29.2 -68.7,43 -19.4,11.4 -39.8,20.5 -61.2,27.2 -15.3,4.8 -31,7.2 -46.5,11 -33.8,8.2 -67.4,17.4 -100.8,27.4 -28.4,8.5 -56.4,18 -84.1,28.5 -30.4,11.5 -60.9,20.8 -94.1,18.3 -13.3,-1 -26.6,-2 -39.5,-5.6 -13.9,-3.9 -25.1,-11.8 -33.2,-23.9 -15.4,-23.1 -26.4,-48.5 -38.9,-73.2 -6.7,-13.2 -13.3,-26.5 -20,-39.7 -0.6,-1.2 -1.5,-2.7 -3.2,-1.1 0.3,2.3 0.6,4.6 1,6.9 4.5,23.4 12.2,46.1 17.7,69.2 3.7,15.9 9.1,31.2 14.6,46.5 9.4,26.1 27,45.1 49.6,60.2 2.8,1.8 4.9,3.9 6.5,6.8 3.3,5.9 7.4,11.3 13.5,14.6 17.4,9.5 36.1,14.8 55.7,15.7 17.2,0.7 34.3,-1.6 51.3,-4.2 26.2,-4 51.5,-11.8 77,-18.6 v 0 c 3.1,-4.9 5.9,-10.1 9.4,-14.6 7.5,-9.7 7.8,-20.1 4.6,-31.3 -0.8,-2.8 -3.9,-7.2 -0.2,-8.3 4.2,-1.3 4.3,4.2 5.5,7.2 0.8,1.8 1.4,3.8 2.4,6.6 4.1,-7.4 5.8,-14.9 8,-22.1 0.7,-2.2 1.3,-4.4 2.1,-6.6 0.4,-1.2 1.4,-1.7 2.7,-1.5 1.4,0.2 2,1.4 2,2.5 -0.1,1.7 -0.7,3.4 -1.1,5 -2.8,11.3 -7,22.1 -11.2,32.8 -0.6,1.6 -1.4,3.3 -1.4,5 0,4 -1.3,6.6 -4.7,9.4 -2.9,2.4 -7.4,6.2 -3.9,11.6 0,0 0,0 0,0 1.1,-0.2 2.3,-0.3 3.4,-0.6 48.2,-13.4 95.2,-30.4 141.2,-50 55.4,-23.5 108.9,-51.1 162.8,-77.9 17.2,-8.6 33.9,-18 52.6,-22.8 1.1,-0.3 2.1,-0.9 3.2,-1.4 -4.4,-4.4 -5.7,-9 -4,-15.6 2.1,-8.5 -0.4,-17.2 -2.8,-25.6 -0.4,-1.4 -1.3,-2.7 -1.6,-4 -0.4,-1.9 0.4,-3.5 2.2,-4.2 2.1,-0.7 3.2,0.7 4,2.3 2.2,4.5 1.9,9.7 3.6,14.3 0.4,1.1 0.4,2.3 0.7,4.3 3.8,-4.2 4.3,-9.1 6.4,-13.3 2.6,-5.2 4.9,-10.6 7.4,-15.8 0.6,-1.3 1.5,-2.8 3.3,-1.8 1.5,0.8 1.7,2.2 1,3.8 -2.4,5.3 -4.8,10.6 -7.1,15.9 -3.5,8.3 -6.6,16.7 -8.2,25.6 -0.8,4.4 -0.4,7.9 2.3,11.3 0,0 0,0 0,0 10.9,-3.3 20.7,-9 30.8,-14.1 10.6,-5.3 16.5,-13.4 17.5,-25.2 0.2,-2.9 0.4,-5.8 0.5,-8.7 0.8,-14.8 1.9,-29.6 4.5,-44.3 4.8,-27.3 9.1,-54.2 8.3,-81.7 z"
         id="path304"
         style="fill:#b73237;fill-opacity:1" />
      <path
         class="st40"
         d="m 1634.5251,-406.36631 c 3.4,-2.8 4.7,-5.4 4.7,-9.4 0,-1.7 0.8,-3.4 1.4,-5 4.2,-10.8 8.5,-21.6 11.2,-32.8 0.4,-1.7 1,-3.3 1.1,-5 0.1,-1.1 -0.6,-2.3 -2,-2.5 -1.3,-0.2 -2.3,0.3 -2.7,1.5 -0.8,2.2 -1.4,4.4 -2.1,6.6 -2.1,7.3 -3.9,14.7 -8,22.1 -1,-2.8 -1.6,-4.7 -2.4,-6.6 -1.3,-3 -1.4,-8.5 -5.5,-7.2 -3.7,1.1 -0.5,5.5 0.2,8.3 3.1,11.2 2.9,21.6 -4.6,31.3 -3.5,4.6 -6.3,9.7 -9.4,14.6 v 0 c 3.1,1.7 6.3,3.3 8.7,-0.8 1.3,-2.2 4.1,-1.8 5.5,-3.6 0,0 0,0 0,0 -3.5,-5.3 1,-9.1 3.9,-11.5 z"
         id="path306"
         style="fill:#d55355;fill-opacity:1" />
      <path
         class="st40"
         d="m 1998.9251,-561.76631 c 1.7,-8.9 4.7,-17.3 8.2,-25.6 2.3,-5.3 4.7,-10.6 7.1,-15.9 0.7,-1.5 0.5,-3 -1,-3.8 -1.8,-0.9 -2.7,0.6 -3.3,1.8 -2.5,5.2 -4.8,10.6 -7.4,15.8 -2.1,4.1 -2.6,9.1 -6.4,13.3 -0.3,-2 -0.4,-3.2 -0.7,-4.3 -1.6,-4.7 -1.3,-9.8 -3.6,-14.3 -0.8,-1.6 -2,-3.1 -4,-2.3 -1.9,0.7 -2.6,2.3 -2.2,4.2 0.3,1.4 1.2,2.7 1.6,4 2.4,8.4 4.9,17.1 2.8,25.6 -1.7,6.6 -0.3,11.2 4,15.6 2.7,-0.2 5.2,-1 7.2,-2.9 0,0 0,0 0,0 -2.7,-3.3 -3.1,-6.8 -2.3,-11.2 z"
         id="path308"
         style="fill:#d55355;fill-opacity:1" />
      <path
         class="st3"
         d="m 1365.7251,-639.76631 c 5,13.6 10.1,27.3 15.9,40.5 5.6,12.7 15.9,20.7 29.4,23.8 10.4,2.4 21.1,3.9 31.9,3.6 9.4,-10.5 20,-19.8 28.6,-31 v 0 c -0.2,-2.1 0.2,-4 0.8,-6 5.4,-19.9 13.9,-38.6 22.5,-57.3 8.4,-18.1 17.3,-36 23.3,-55.2 3.8,-12.2 6.3,-24.6 7.4,-37.3 1.5,-17.9 -3.4,-34.2 -10.8,-50.3 -3.9,-8.4 -9.4,-16 -12,-25 0,0 0,0 0,0 -3.3,-4.4 -7.9,-8 -8.7,-13.9 0,0 0,0 0,0 -0.8,-1.2 -1.8,-2.3 -2.5,-3.5 -15.2,-26.1 -33.6,-49.5 -57.7,-67.9 -10.4,-7.9 -21.6,-14.8 -34.8,-17.3 -1.8,-0.3 -3.4,-0.5 -4.7,1.2 0,0 0,0 0,0 10.4,23.6 20.7,47.1 28.3,71.8 1.4,4.5 4.1,8.3 6.7,12.1 v 0 c 0,0 0,0 0,0 0.3,0.3 0.6,0.6 0.7,0.9 12.3,15.8 26.3,29.8 42.6,41.5 1.4,1 2.8,2.1 4.1,3.2 1.2,1 2,2.3 0.8,3.7 -1.4,1.5 -2.6,0.2 -3.7,-0.7 -15.5,-13 -31.6,-25.5 -44,-41.9 -0.6,-0.8 -1.5,-0.7 -2.2,0.1 0,0.6 0,1.1 0,1.7 0,0 0,0 0,0 2,1.3 1.7,3.3 1.7,5.3 3.4,12.9 7,25.7 10.2,38.6 1.2,4.6 -0.5,7.3 -4.3,8.2 -3.2,0.8 -6.4,-1.2 -7.5,-5.6 -2,-7.8 -3.7,-15.8 -5.3,-23.7 -4.5,-21.9 -11,-43.1 -20.3,-63.6 -7.1,-15.6 -14.4,-31 -24.3,-45.1 -2,-2.8 -4.1,-5.6 -6.1,-8.4 v 0 c -1.9,1.2 -2.6,3.1 -3.1,5.1 -6.2,22.3 -16.6,42.7 -28.5,62.4 -9.8,16.2 -18.9,32.7 -21.9,51.8 -0.8,5 0.3,10 -1,14.7 -3.4,12.6 -0.3,24.8 1.3,37.1 1.6,11.8 5.4,23.2 7.5,34.8 3.7,20.3 11.5,38.8 21.9,56.5 6.6,11.4 13.3,22.7 17.8,35.1 z"
         id="path310"
         style="fill:#b73237;fill-opacity:1" />
      <path
         class="st3"
         d="m 1453.7251,-923.16631 c 3.8,2.3 6.7,5.6 9.5,8.9 11.4,13.5 22.3,27.4 34.1,40.6 20.5,22.8 44,42 69.1,59.6 23.8,16.6 49.2,29.7 76.1,40.3 26.2,10.4 53.1,18.4 80.8,23.9 22.1,4.4 44.1,9.8 66.6,11.6 12.4,1 24.9,1.6 37.2,-2.4 7.5,-2.4 11.6,-6.7 13.8,-14.1 1.4,-4.6 0,-8.6 -0.8,-12.8 -6.4,-17.6 -16.5,-33.1 -27,-48.5 -1.6,-2.4 -3.1,-4.9 -4.6,-7.4 0,0 0,0 0,0 -0.6,-0.6 -1.1,-1.2 -1.7,-1.8 0,0 0,0 0,0 0,0 0,0 0,0 -0.6,-0.6 -1.3,-1.1 -1.8,-1.8 -14.9,-21.3 -34.4,-37 -58.6,-46.5 -24.3,-9.5 -49.3,-17.1 -74.7,-23.4 -18.3,-4.6 -36.9,-7 -55.5,-10.2 -14.8,-2.5 -29.7,-4.9 -44.7,-5.7 -10.9,-0.6 -21.8,-2.7 -32.6,-4.3 -16.2,-2.4 -31.4,-8.4 -46.8,-13.4 -15.2,-5 -29.6,-4.5 -44.2,1.8 1.5,2.7 3.6,4.3 5.8,5.6 z"
         id="path312"
         style="fill:#b73237;fill-opacity:1" />
      <path
         class="st16"
         d="m 1442.9251,-571.76631 c -1.4,1.9 -2.7,3.7 -4.2,5.5 -13.8,17.5 -20.6,37.6 -21.8,59.7 -0.1,2.6 -0.5,5.3 0.9,7.7 9.1,14.9 19.9,26.7 39.6,27.1 25.5,0.5 50.5,-1.7 75.2,-8.1 36.3,-9.4 71.9,-21.4 107.9,-31.8 16.3,-4.7 32.1,-10.4 46.9,-18.7 20.6,-11.6 41.9,-21.6 63.4,-31.3 22.2,-10 42.6,-22.9 61.1,-38.6 19.8,-16.8 41.2,-30.1 65.7,-38.7 18.6,-6.6 36.9,-14.3 54,-24.5 19.1,-11.4 36.2,-25.4 52.6,-40.3 1.3,-1.2 3.8,-1.8 3.2,-4.3 -1.2,-1.3 -2.7,-1.3 -4.2,-1.5 -11.6,-1.3 -22.5,0.9 -33.1,5.7 -10.7,4.8 -20.2,11.5 -30.6,16.7 -35.1,17.7 -71.3,32.9 -108.6,45.4 -43.1,14.5 -85.4,30.4 -125.9,51.2 -21.5,11 -42.8,22.3 -65,32 -16.5,7.2 -33.8,10.5 -51.7,11.2 -8.7,0.4 -16.6,-2.1 -24.2,-6.1 -5.4,-2.8 -8.1,-7 -8.4,-13.2 -0.3,-6.7 1.5,-12.7 4.4,-18.4 7.9,-15.3 17.1,-29.8 28.7,-42.6 6.3,-6.9 10.5,-14.5 11.4,-23.9 0.7,-7.2 1.8,-14.5 3.5,-21.5 2.6,-10.8 4.6,-21.6 5.6,-32.6 1.8,-19.5 -5.1,-36 -16.9,-50.8 -3.4,-4.3 -5.2,-4.3 -9.5,-0.7 -5.4,4.6 -9.5,10.2 -13.2,16.2 -5.7,9.5 -11.6,18.9 -19.3,26.9 -2.2,2.3 -2.9,4.8 -2.8,7.9 0.2,7.3 -0.9,14.4 -3,21.5 -9.6,32.6 -30.2,58 -53.2,81.8 v 0 c -8.4,11.3 -19.1,20.6 -28.5,31.1 z m 326,-43.4 c 3.8,-2.5 7.6,-4.3 12.2,-3.7 3.4,0.4 4.5,2 3.1,5.4 -4.4,10.6 -11.5,18.7 -21.3,24.5 -10.5,6.2 -21.4,11.6 -32.6,16.6 -11.9,5.4 -23.2,12 -34.8,18 -2.4,1.3 -4.8,2.9 -9.3,3.4 28,-22.7 53.8,-45.4 82.7,-64.2 z m -282.2,31.9 c 11.8,-13.1 21.9,-27.7 32.9,-41.5 11.3,-14.2 19,-30.5 26.9,-46.7 3.4,-6.9 7.9,-8.7 14.7,-6.3 2.7,1 3.9,2.2 3.3,5.8 -1.5,10.6 -5.6,20.1 -11.4,28.9 -6,9.3 -11.3,18.9 -16.2,28.8 -3,6 -7.4,11 -12,15.9 -9.4,9.9 -20.1,18.5 -28.1,29.8 -0.3,0.5 -0.8,0.8 -1.2,1.3 -7.8,11 -8,20 4.5,30.1 10,8 21.4,13.9 32.2,20.6 2.1,1.3 4.9,1.9 5.7,6.2 -18.3,-0.3 -35.9,-1.7 -53.5,-3.2 -9.2,-0.8 -18.4,-1.6 -27.5,-3.5 -4.7,-1 -8.8,-3 -12.9,-5.2 -7.1,-3.8 -7.6,-6.7 -3.1,-13.1 5.8,-8.1 12.5,-15.4 20.1,-21.6 9.8,-7.8 17.6,-17.3 25.6,-26.3 z"
         id="path316"
         style="fill:#fcd8bc;fill-opacity:1" />
      <path
         class="st3"
         d="m 1634.4251,-749.96631 c -8.3,-5.8 -17.4,-10.1 -26.7,-14.1 0,0 0,0 0,0 0,0 0,0 0,0 -1.4,0 -2.7,-0.3 -3.5,-1.7 -3.4,3.9 -1.4,7.6 0.4,11.2 5.4,11 14.3,19 23.5,26.7 7.9,6.6 9.2,13.2 6.4,20.6 -2.6,6.8 -4.8,13.7 -7.4,20.5 -6.1,16.3 -11.9,32.7 -21.3,47.6 -5.7,9.1 -11,18.5 -15.8,28.1 -5.6,11.3 -3.1,16.2 9.1,19.8 0.6,0.2 1.2,0.2 1.7,0.3 16.2,3.4 32.3,2.5 48.2,-1.9 18.7,-5.1 35.5,-14.5 52,-24.3 15.2,-9 29.8,-19.2 45.5,-27.5 24.4,-13 49.8,-23.7 76.2,-32.3 13.3,-4.3 26.2,-9.5 39,-15 3.5,-1.5 6.8,-3.4 10.1,-5.2 1.3,-0.7 2.6,-1.8 2.4,-3.4 -0.2,-1.6 -1.7,-2.2 -3.2,-2.4 -5.8,-0.5 -11.4,-2 -17.3,-1.9 -28.2,0.1 -56.4,0.8 -84.5,-1.8 -7.5,-0.7 -15,-1.1 -22.5,-2 -19.1,-2.3 -36.3,-11.3 -55,-15.3 -12,-4.9 -23.9,-9.7 -35.8,-14.7 -7.7,-2.9 -14.9,-6.7 -21.5,-11.3 z"
         id="path318"
         style="fill:#b73237;fill-opacity:1" />
      <path
         class="st3"
         d="m 1854.3251,-804.96631 c 4.1,12.1 7.3,24.4 12.9,36 5.7,11.7 14.9,16.9 27.2,19.1 14,2.5 28.3,2.9 41.9,6.9 17,5 33.3,12 50.6,16 12.1,2.8 24.1,6 36.7,6.7 0.9,0 1.7,0 2.6,0 8.3,-0.1 10,-2.4 6.5,-9.9 -3.5,-7.4 -8.4,-14 -14.8,-19.1 -6.8,-5.4 -13.7,-10.7 -20.7,-15.9 -33.9,-25.7 -71,-45 -112.5,-55.5 -9.1,-2.3 -17.7,-1.8 -26.4,-0.2 -8.6,1.5 -8.7,2.2 -5.7,10.2 0.7,1.8 1.1,3.8 1.7,5.7 z"
         id="path320"
         style="fill:#b73237;fill-opacity:1" />
      <path
         class="st41"
         d="m 1502.7251,-833.86631 c 20.5,18.1 43.4,32.8 66.8,46.8 11.7,7 23.1,14.3 34.7,21.4 0,0 0,0 0,0 1.5,0 2.8,0.3 3.5,1.7 0,0 0,0 0,0 9.3,3.9 18.3,8.2 26.7,14.1 6.6,4.6 13.8,8.4 21.3,11.5 11.9,5 23.9,9.8 35.8,14.7 0.9,0 1.7,0 2.6,-0.1 2.2,-0.2 5,0.7 5.9,-2.3 0.9,-3 0.4,-5.9 -2.2,-7.9 -2.1,-1.6 -4.4,-2.8 -6.7,-3.9 -4.5,-2.1 -9,-4.1 -13.5,-5.9 -13.2,-5.3 -25.9,-11.7 -38.9,-17.2 -12,-5.1 -24.2,-9.8 -35.3,-16.9 -19.8,-12.6 -40,-24.6 -57.9,-39.9 -11,-9.4 -22.2,-18.6 -29.6,-31.5 -1.7,-3 -3.4,-6.1 -6.2,-8.4 -3.9,-3.3 -7.8,-3.3 -11.7,-0.2 -3.3,2.7 -4.2,6.1 -3.9,10.1 0,0 0,0 0,0 0.7,5.9 5.4,9.4 8.6,13.9 0,0 0,0 0,0 z"
         id="path322"
         style="fill:#d55355;fill-opacity:1" />
      <path
         class="st42"
         d="m 1402.1251,-883.56631 c 9.3,20.4 15.8,41.7 20.3,63.6 1.6,7.9 3.3,15.9 5.3,23.7 1.1,4.3 4.2,6.4 7.5,5.6 3.7,-0.9 5.4,-3.6 4.3,-8.2 -3.3,-12.9 -6.8,-25.7 -10.2,-38.6 -2,-1.3 -1.7,-3.3 -1.7,-5.3 0,0 0,0 0,0 0,0 0,0 0,0 0,-0.6 0,-1.1 0,-1.7 -2.3,-2 -2.8,-3.7 0.9,-4.7 0.5,-0.1 0.6,-1.5 0.9,-2.3 -2.5,-3.9 -5.3,-7.7 -6.7,-12.1 -7.6,-24.7 -17.9,-48.3 -28.3,-71.8 0,0 0,0 0,0 -2.6,-3 -2.3,-6.9 -3.5,-10.4 -1.8,-5.1 -4.9,-8.4 -10.5,-8.8 -4.3,-0.3 -7.8,1.3 -10.3,5 -3.2,4.7 -1.5,8.6 1.6,12.4 0,0 0,0 0,0 2,2.8 4.1,5.6 6.1,8.4 9.9,14.2 17.2,29.6 24.3,45.2 z"
         id="path324"
         style="fill:#d55355;fill-opacity:1" />
      <path
         class="st41"
         d="m 1807.0251,-825.16631 c 0.6,0.5 1.1,1.2 1.7,1.8 0,0 0,0 0,0 1.5,2.5 2.9,5 4.6,7.4 10.4,15.4 20.6,30.9 27,48.5 3.3,2.5 6.5,4.6 10.9,1.6 4,-2.8 2.9,-6.6 3,-10.2 0.1,-2.4 -1.3,-4.4 -2.2,-6.5 -1.7,-3.7 -3.5,-7.3 -5,-11.1 -5.8,-14.4 -9.8,-29.7 -18.4,-42.9 -3.6,-5.5 -7.5,-7.5 -13.8,-5.9 -4.5,1.1 -7.5,5.5 -7.6,11.2 -0.3,2 -0.2,4 -0.2,6.1 0,-0.1 0,-0.1 0,0 0,0 0,0 0,0 z"
         id="path328"
         style="fill:#d95658;fill-opacity:1" />
      <path
         class="st43"
         d="m 1428.5251,-849.06631 c -3.7,1 -3.1,2.6 -0.9,4.7 0.7,-0.8 1.6,-0.9 2.2,-0.1 12.4,16.3 28.5,28.8 44,41.9 1.1,0.9 2.3,2.2 3.7,0.7 1.2,-1.4 0.4,-2.7 -0.8,-3.7 -1.3,-1.1 -2.7,-2.2 -4.1,-3.2 -16.3,-11.7 -30.3,-25.7 -42.6,-41.5 -0.2,-0.3 -0.5,-0.6 -0.7,-0.9 0,0 0,0 0,0 v 0 c -0.2,0.6 -0.4,2 -0.8,2.1 z"
         id="path330"
         style="fill:#d55355;fill-opacity:1" />
      <path
         class="st44"
         d="m 1461.4251,-557.06631 c -7.6,6.2 -14.4,13.5 -20.1,21.6 -4.5,6.4 -4,9.2 3.1,13.1 4.1,2.2 8.2,4.2 12.9,5.2 9.1,1.9 18.3,2.7 27.5,3.5 17.6,1.5 35.2,2.9 53.5,3.2 -0.7,-4.2 -3.5,-4.8 -5.7,-6.2 -10.8,-6.7 -22.3,-12.5 -32.2,-20.6 -12.5,-10.1 -12.3,-19 -4.5,-30.1 0.3,-0.5 0.8,-0.8 1.2,-1.3 7.9,-11.3 18.7,-19.9 28.1,-29.8 4.6,-4.9 9.1,-9.9 12,-15.9 4.9,-9.9 10.2,-19.6 16.2,-28.8 5.7,-8.8 9.8,-18.3 11.4,-28.9 0.5,-3.5 -0.6,-4.8 -3.3,-5.8 -6.9,-2.4 -11.3,-0.5 -14.7,6.3 -8,16.2 -15.6,32.5 -26.9,46.7 -11,13.8 -21.2,28.4 -32.9,41.5 -8.3,9.1 -16.1,18.6 -25.6,26.3 z"
         id="path334"
         style="fill:#fff2ea;fill-opacity:1" />
      <path
         class="st44"
         d="m 1730.3251,-572.46631 c 11.1,-5 22,-10.4 32.6,-16.6 9.9,-5.8 16.9,-13.9 21.3,-24.5 1.4,-3.4 0.3,-4.9 -3.1,-5.4 -4.6,-0.6 -8.4,1.2 -12.2,3.7 -28.9,18.8 -54.8,41.5 -82.8,64.1 4.5,-0.5 6.9,-2.1 9.3,-3.4 11.7,-5.9 23,-12.5 34.9,-17.9 z"
         id="path336"
         style="fill:#fff2ea;fill-opacity:1" />
    </g>
  </g>
</svg>
