<svg width="210mm" height="103mm" version="1.1" viewBox="0 0 210 103" xmlns="http://www.w3.org/2000/svg"><g transform="matrix(.18837 0 0 .18837 -306.7 -112.9)"><path class="st2" d="m1656.3 1051.3c6.8 9.5 16.3 12.4 26.6 12.9 16.6 0.8 33.3 1 49.8 0 17-1 33.9-3.8 50.7-7.1 11.7-2.3 23.6-3.8 35.3-6.4 16.8-3.7 33-9.4 48.7-16.1 7.7-3.2 15.3-6.2 23.5-7.7 23-4 44.8-11.3 65.5-21.9 10-5.1 20.9-7.7 31.9-9.2 21.2-2.9 42-7.4 63-11.5 17.9-3.5 35.9-6.2 53.8-9.4 16.8-3 33.5-6.3 50.4-9.3 18.5-3.3 37-6.4 55.5-9.5 19.6-3.3 39.3-6.5 58.9-9.8 21.9-3.6 43.8-7.1 65.7-10.9 20.7-3.7 41.5-7.2 62-11.8 41-9.2 81.3-20.4 121-34.3 19.1-6.7 37.8-14.7 56.3-23.1 18.6-8.4 36.5-17.6 53.3-29.2 22.7-15.6 41.1-35.2 54.9-59 5-8.7 10.1-17.1 17.5-24.1 6.7-6.4 10.1-15.1 13.6-23.6 1.5-3.6 8.3-12.1 11.9-14.7 0.2-10.5 0.6-20.3-6-30.1-13.9-20.4-30.6-35.9-55.2-42.2-26-6.6-52.3-10-79-10-83.1 0-166.1 1.3-249-7.1-20.5-2.1-41-4.1-61.5-6.2-18.8-1.9-37.6-4.2-56.4-5.7-39-3.1-77.8-1.2-116.6 3.3-25.7 3-48.8 12.1-67.9 30-19.6 18.2-28.8 40.2-24 67.1 1.2 6.8 2.6 13.5 3.3 20.3 2.6 26.7-0.4 51.9-19.7 73-20.3 22.1-44.4 38.6-71.4 51.1-17.9 8.3-36.6 12.6-56.4 13-39.1 0.9-76.3 10.1-112.1 25.9-26.2 11.6-50.2 26.1-70.6 46.4-7.6 7.6-14 15.9-18.2 25.8-2.9 6.9-6.9 12.9-11.8 18.7-5.6 6.7-12.4 13.6-13 22.8-1 15.9-1.5 32 0.7 47.9v-26.1c5.7 7.2 11 12.2 15 17.8zm559.6-298.3c4.6-32.5 18.5-59.9 45.3-79.9 5.3-3.9 10.5-7.9 16.3-11 6.9-3.8 13.7-6.6 22-4.1 3.9 1.2 8.5 0.3 12.8 0.2 10.9-0.3 21 2.5 30.3 7.9 12.6 7.3 16.5 17.3 12.3 31.2-6.6 21.9-20.4 38.9-37.8 53-20.2 16.3-42.9 27.2-69.6 27.7-6-0.1-12-0.3-17.8-2.5-10.7-4-15.4-11.1-13.8-22.5zm-478.4 265.2c2.1-11.1 7.7-20 15.3-28.1 13.5-14.4 30-24.5 46.6-34.6 21.8-13.1 44.8-24.1 67.6-35.5 38.6-19.4 76.3-40.5 115.1-59.5 9.4-4.6 17.5-11.6 25.7-18.3 14.2-11.5 25.1-25.6 35.2-40.5 7.5-11.2 11.7-23.2 11.3-37-0.5-15.5 0.1-30.9-0.2-46.4-0.1-7.2 0.8-14.4 2.7-21.1 6.4-22.4 19.6-37.8 44.2-42.1 14.3-2.5 28.6-5 43.1-5.7 24.8-1.2 48.1 7.2 58.4 35.9 1.2 3.4 1.6 6.7 0.8 10.1-2.1 8.9-5.5 17.2-10.3 25.2-8.4 14.2-18 27.9-22.6 44.1-2.1 7.5-3.7 14.7-1.3 22.6 3.8 12.7 12.4 20.3 26 21 2.6 0.1 5.2 0 7.7 0 13.1-0.6 26-2.2 39-4.3 20.8-3.4 41.3-8.5 61.4-14.9 21.8-6.9 43.5-14.4 62.3-28 10.7-7.7 19.8-17 28.8-26.6 18-19.3 37.9-36.4 65.1-42.1 5.1-1.1 10.3-1.2 15.3-1.2 21.3 0.1 42.8-0.1 63.6 5.6 8.5 2.4 16.8 5.4 24.3 10.4 11.3 7.5 15.2 18.7 13.8 31.1-2.6 23-14.7 40.9-33 54.9-24.4 18.7-52.3 30.3-80.7 40.7-37 13.6-75.3 23-113.6 32.1-27.1 6.4-54.4 12.2-81.8 17.5-19 3.7-38.2 5.9-57.2 9.2-17.4 3-34.6 6.5-52 9.6-21 3.8-42.1 6.9-63 11.1-17.8 3.6-35.6 8-53.1 12.8-29.4 8.1-58.7 16.5-88 25.2-18.1 5.4-35.5 12.6-52.8 20.1-31.3 13.5-61.7 28.9-92 44.4-7.9 4-15.7 8.1-23.7 11.9-12.1 5.7-24.8 6.4-37.7 5.5-8.1-0.6-11.8-7-10.3-15.1z" fill="#d24d51"/><path class="st3" d="m2726.1 715.6c-3.6 2.6-10.4 11.1-11.9 14.7-3.5 8.5-6.9 17.2-13.6 23.6-7.4 7.1-12.5 15.5-17.5 24.1-13.8 23.8-32.2 43.4-54.9 59-16.8 11.6-34.8 20.8-53.3 29.2-18.5 8.3-37.1 16.4-56.3 23.1-39.6 13.9-80 25.2-121 34.3-20.6 4.6-41.3 8.2-62 11.8-21.8 3.9-43.8 7.3-65.7 10.9-19.6 3.3-39.3 6.5-58.9 9.8-18.5 3.1-37 6.2-55.5 9.5-16.8 3-33.6 6.3-50.4 9.3-17.9 3.2-35.9 5.9-53.8 9.4-20.9 4.1-41.8 8.5-63 11.5-11 1.5-21.9 4.1-31.9 9.2-20.8 10.6-42.6 17.9-65.5 21.9-8.2 1.4-15.8 4.4-23.5 7.7-15.8 6.6-32 12.4-48.7 16.1-11.7 2.6-23.5 4.1-35.3 6.4-16.8 3.3-33.7 6.1-50.7 7.1-16.6 1-33.2 0.8-49.8 0-10.3-0.5-19.9-3.4-26.6-12.9-4-5.7-9.4-10.7-15.1-17.7v26.1c0.1 4 0.1 8 0.5 12 1 11.2 5 21.2 13.7 28.7 19.4 16.4 42.2 25.9 66.3 32.7 0.8 0.2 1.7 0.1 2.6 0.3 13.4 2.4 26.9 0.4 40.3-0.1 16.6-0.7 33.1-2.2 49.6-4.5 26.9-3.8 53.3-10.4 79.6-17.2 42.9-11 84.6-26 127.3-38 31.3-8.9 61.3-21.9 92.7-30.9 21.1-6.1 41.8-14 63-19.4 49.5-12.5 100.1-18.7 151.1-20.3 36.3-1.2 71.8-6.7 106.5-16.6 55.2-15.8 109.8-33.5 163.5-54 23.4-9 45.1-21 64.8-36.5 11-8.7 22.1-17.6 29.8-29.5 7.6-11.7 14.8-23.8 20.9-36.5 3.8-8 7.1-16.3 8.2-25.2 4-29.6 5.9-59.3 4.5-89.1zm-883.5 352.5c-1.6 4.1-4.2 7.5-7.9 9.9-4.1 2.6-8.1 5.3-12.4 7.6-6.2 3.3-9 8.2-8.9 15.3 0.1 7-0.7 7.6-7.4 9.4-1.1 0.3-2.2 0.6-3.4 0.6-14.3-0.4-28.4 3.4-43.4 1.3-20.2 3.5-39.3-4.4-58.9-8.9-5.3-1.2-10.6-2.5-15.6-4.4-6-2.4-6.4-3.9-3.8-9.8 3.1-7.2 3.6-7.4 10.7-5.3 6.9 2 13.8 2.9 21 3.3 31.9 1.5 62.3-6.1 92.2-15.9 11.2-3.6 22.7-5.4 34.1-7.8 3.8-1 5.2 1 3.7 4.7zm386.3-70.7c-7.7 2.2-15.3 4.7-23 6.5-14 3.3-27.2 8.8-40.5 13.7-14.2 5.3-28.5 10.4-43.3 13.5-6 1.3-12.4 2.5-18.2-1.7-2.2-1.6-5-0.7-7.5-1.2-2.7-0.5-4.3-1.6-2.2-4.6 2-2.8 3.8-5.7 5.6-8.6 4.7-7.5 2.9-12.9-5.5-15.9-4.8-1.7-9.7-3.4-14.9-3.4-2.4 0-4.5-0.7-7.3-2.9 5.9-5.7 12.8-8.2 19.6-10.9 13.6-5.4 28.1-6.5 42.5-8.8 21.9-3.5 43.8-3.1 65.8-3.2 4.4 0 7.9 0.3 11.3 4.3s8.6 6.4 13.2 9.4c2.9 1.9 5.4 4.2 7.1 7.3 1.5 3.2 1 5.4-2.7 6.5zm442.1-121.5c-4.3 9.9-11.3 17.5-20.3 23.6-16.7 11.4-35.5 18.1-54.6 23.9-12.5 3.8-25.1 7.7-37.3 12.5-9.4 3.6-18.9 6.2-29.6 4.2 0.9-4.5 3.5-8 5.7-11.4 2.4-3.6 2.2-5.6-2-7-3.2-1.1-6.4-2.4-9.6-3.7-2.5-1-4.8-2.7-4.7-5.5 0-3.2 1.4-6.2 4.6-7.6 3.1-1.3 6.4-2.7 9.7-3.2 6.9-1.1 13.3-3.7 19.3-6.7 19.2-9.5 39.4-16.6 58.5-26.3 9.2-4.7 17.9-10 25.9-16.5 2.5-2 5.1-3.7 8.1-4.7 3.4-1.2 5.1 0.6 4.8 4.3-0.6 7.5-2.5 14.6-6.3 21.1-0.8 1.5-1.4 3.1-2.1 4.6 0.3 0.5 0.7 0.9 1 1.4 4.4-1.7 8.9-3.2 13.2-5.2 3.7-1.7 7.6-2.4 11.5-3.2 4.3-0.9 5.9 1.5 4.2 5.4zm45-92.1c-5.3 18.6-10.2 37.4-19.3 54.7-2.1 3.9-4.6 7.3-8.1 9.8-3.7 2.7-7 1.3-6.9-3.2 0.3-10.1-1-19.8-3.4-29.6-1-4.1 0.5-7.9 3.1-11.2 5.5-7.2 11-14.5 16.5-21.7 6.2-8.2 11.4-17 16.4-26 1.1-1.9 1.5-4.3 4.6-5.8 1.4 11.8 0.1 22.5-2.9 33z" fill="#b73237"/><path class="st4" d="m1747.8 1033.4c12.9 1 25.6 0.3 37.7-5.5 8-3.8 15.8-7.8 23.7-11.9 30.3-15.5 60.7-30.8 92-44.4 17.3-7.5 34.7-14.7 52.8-20.1 29.2-8.7 58.6-17.2 88-25.2 17.6-4.8 35.3-9.2 53.1-12.8 20.9-4.2 42-7.3 63-11.1 17.3-3.1 34.6-6.6 52-9.6 19.1-3.2 38.3-5.5 57.2-9.2 27.4-5.3 54.7-11.1 81.8-17.5 38.3-9.1 76.6-18.5 113.6-32.1 28.4-10.4 56.4-22 80.7-40.7 18.3-14 30.4-31.9 33-54.9 1.4-12.4-2.6-23.6-13.8-31.1-7.5-5-15.8-8-24.3-10.4-20.8-5.8-42.3-5.5-63.6-5.6-5 0-10.2 0.1-15.3 1.2-27.1 5.8-47.1 22.8-65.1 42.1-9 9.7-18.1 18.9-28.8 26.6-18.9 13.6-40.5 21-62.3 28-20.1 6.4-40.5 11.5-61.4 14.9-12.9 2.1-25.9 3.7-39 4.3-2.6 0-5.2 0.1-7.7 0-13.5-0.7-22.2-8.3-26-21-2.4-8-0.8-15.1 1.3-22.6 4.6-16.2 14.2-29.9 22.6-44.1 4.7-8 8.1-16.3 10.3-25.2 0.8-3.4 0.4-6.7-0.8-10.1-10.4-28.7-33.6-37.1-58.4-35.9-14.4 0.7-28.7 3.2-43.1 5.7-24.6 4.3-37.8 19.7-44.2 42.1-1.9 6.7-2.8 13.9-2.7 21.1 0.3 15.5-0.3 30.9 0.2 46.4 0.5 13.8-3.8 25.8-11.3 37-10 15-20.9 29-35.2 40.5-8.3 6.7-16.3 13.7-25.7 18.3-38.8 19-76.5 40.1-115.1 59.5-22.7 11.4-45.7 22.4-67.6 35.5-16.7 10-33.2 20.1-46.6 34.6-7.6 8.2-13.2 17-15.3 28.1-1.5 8 2.2 14.4 10.3 15.1zm52.9-34.3c1.9-4.2 4.5-7.9 7.7-11.3 7.5-7.9 15.5-15.3 24.1-22 19.6-15.3 39.8-29.9 61.3-42.4 30.6-17.9 62.1-34.2 95.8-45.9 17-5.9 33.5-13.1 48.1-24.1 16.8-12.6 28.3-28.8 35.2-48.5 5.1-14.6 7.7-29.7 9.1-45.2 1.4-15.6 1.5-31.4 7-46.4 8.6-23.3 21.3-33.6 46.7-34h5.5c9.9-1.5 20.1 2.8 30.5 5.4 9.9 2.5 11.9 7.7 10.4 18.1-1.7 11.9-9.4 20.7-14.3 30.8-7.9 16.1-18.2 31.3-21.6 49.3-2.5 13.8-1.1 27.3 6.8 39.5 3.6 5.6 8.7 7.9 15.1 8.2 9.5 0.6 18.8-0.9 28.1-2.5 21.9-3.6 43.9-7.1 65.6-11.5 22.9-4.6 46.3-7.2 68.5-14.9 24.7-8.6 48.1-19.6 70.1-33.9 11.3-7.4 20-16.8 27.6-27.7 4.7-6.8 8.9-14 14.3-20.3 7.2-8.3 16.6-12.8 26.8-14.2 13.6-1.9 27.5-1.6 40.7 3.3 14.5 5.3 20.4 13.5 11.6 29.9-5.4 10.1-13.1 18.4-21.9 25-22.8 17.3-47 32.7-73 44.7-35.4 16.3-72.2 28.6-110.1 37.5-24.7 5.8-49.4 11.9-74 17.9-20.2 4.9-40.9 7.8-61.3 11.6-19.6 3.7-39.3 6.6-59.1 9.4-25.1 3.6-49.9 8.9-75 12.9-37 5.9-73.3 14.6-107.9 29.3-24.6 10.4-47.6 23.6-69.4 39-16.6 11.7-33.3 23.1-50 34.7-4.3 3-9.1 4.9-14.3 5.2-5.5 0.2-7-1.9-4.7-6.9z" fill="#fde6d5"/><path class="st4" d="m2229.9 775.6c5.8 2.2 11.7 2.4 17.8 2.5 26.7-0.5 49.3-11.4 69.6-27.7 17.4-14.1 31.2-31.1 37.8-53 4.2-13.9 0.3-23.9-12.3-31.2-9.3-5.4-19.4-8.2-30.3-7.9-4.3 0.1-8.9 1-12.8-0.2-8.3-2.5-15.1 0.4-22 4.1-5.8 3.2-11.1 7.1-16.3 11-26.8 20-40.7 47.3-45.3 79.9-1.8 11.3 2.9 18.4 13.8 22.5zm18.6-36.6c2.8-17.9 7-35.4 18.8-49.7 4.8-5.9 11.1-10.7 17.2-15.4 3.8-2.9 8.9-1.7 13.4-1 5.3 0.8 10.5 2.4 15.8 3.5 7.6 1.5 10.4 7.4 8 16-2.2 8-5.6 15.7-10.4 22.4-10.8 15.3-25.1 26.3-43 32.1-1.4 0.4-2.7 0.9-4.1 1.2-1.1 0.2-2.3 0-3.4 0v0.2c-2-0.2-4-0.2-5.9-0.7-5.1-1.2-7.2-3.6-6.4-8.6z" fill="#fde6d5"/><path class="st31" d="m2667 870.5c-3.8 0.9-7.8 1.5-11.5 3.2-4.3 2-8.8 3.5-13.2 5.2-0.3-0.5-0.7-0.9-1-1.4 0.7-1.5 1.2-3.2 2.1-4.6 3.8-6.5 5.6-13.6 6.3-21.1 0.3-3.7-1.4-5.4-4.8-4.3-3 1-5.6 2.7-8.1 4.7-7.9 6.5-16.7 11.8-25.9 16.5-19.1 9.7-39.3 16.8-58.5 26.3-6 3-12.5 5.6-19.3 6.7-3.3 0.5-6.6 1.9-9.7 3.2-3.2 1.4-4.6 4.4-4.6 7.6 0 2.8 2.3 4.5 4.7 5.5 3.1 1.3 6.3 2.6 9.6 3.7 4.2 1.4 4.4 3.4 2 7-2.2 3.4-4.8 6.8-5.7 11.4 10.7 2 20.2-0.6 29.6-4.2 12.2-4.7 24.7-8.6 37.3-12.5 19.1-5.8 37.9-12.5 54.6-23.9 8.9-6.1 16-13.6 20.3-23.6 1.5-3.9-0.1-6.3-4.2-5.4z" fill="#992932"/><path class="st2" d="m2224.2 983.6c-4.5-3-9.8-5.4-13.2-9.4s-6.9-4.3-11.3-4.3c-22 0.1-43.9-0.3-65.8 3.2-14.3 2.3-28.8 3.3-42.5 8.8-6.8 2.7-13.8 5.2-19.6 10.9 2.8 2.3 4.9 2.9 7.3 2.9 5.2 0 10.1 1.7 14.9 3.4 8.4 3 10.2 8.4 5.5 15.9-1.8 2.9-3.6 5.8-5.6 8.6-2.1 3-0.5 4.1 2.2 4.6 2.5 0.5 5.3-0.5 7.5 1.2 5.8 4.2 12.2 2.9 18.2 1.7 14.8-3.1 29.1-8.2 43.3-13.5 13.4-5 26.6-10.5 40.5-13.7 7.8-1.8 15.4-4.3 23-6.5 3.7-1.1 4.3-3.3 2.5-6.5-1.5-3.1-3.9-5.4-6.9-7.3z" fill="#d24d51"/><path class="st31" d="m1838.8 1063.2c-11.4 2.4-22.9 4.2-34.1 7.8-29.9 9.8-60.2 17.4-92.2 15.9-7.2-0.3-14.2-1.3-21-3.3-7.1-2.1-7.5-1.9-10.7 5.3-2.6 5.9-2.2 7.5 3.8 9.8 5 2 10.3 3.2 15.6 4.4 19.6 4.6 38.8 12.4 58.9 8.9 15 2.1 29.1-1.7 43.4-1.3 1.1 0 2.3-0.3 3.4-0.6 6.7-1.8 7.5-2.4 7.4-9.4-0.1-7.1 2.7-12 8.9-15.3 4.3-2.3 8.3-5 12.4-7.6 3.8-2.4 6.3-5.8 7.9-9.9 1.6-3.5 0.2-5.5-3.7-4.7z" fill="#992932"/><path class="st2" d="m2714.3 756.6c-5 9-10.2 17.8-16.4 26-5.5 7.2-11 14.5-16.5 21.7-2.6 3.3-4.1 7.1-3.1 11.2 2.4 9.7 3.7 19.5 3.4 29.6-0.1 4.5 3.2 5.9 6.9 3.2 3.5-2.5 6-5.9 8.1-9.8 9.2-17.3 14-36.1 19.3-54.7 3-10.5 4.2-21.2 2.9-33-3 1.5-3.5 3.9-4.6 5.8z" fill="#d24d51"/><path class="st7" d="m1805.3 1006c5.3-0.2 10-2.2 14.3-5.2 16.7-11.5 33.4-23 50-34.7 21.8-15.4 44.7-28.6 69.4-39 34.7-14.7 70.9-23.4 107.9-29.3 25-4 49.8-9.3 75-12.9 19.7-2.8 39.4-5.8 59.1-9.4 20.4-3.8 41.1-6.6 61.3-11.6 24.7-6 49.3-12.1 74-17.9 37.9-8.9 74.7-21.2 110.1-37.5 26.1-12 50.2-27.4 73-44.7 8.8-6.7 16.5-14.9 21.9-25 8.7-16.4 2.9-24.6-11.6-29.9-13.2-4.8-27.1-5.2-40.7-3.3-10.2 1.4-19.6 5.9-26.8 14.2-5.5 6.3-9.6 13.5-14.3 20.3-7.6 10.9-16.4 20.4-27.6 27.7-21.9 14.3-45.4 25.4-70.1 33.9-22.2 7.7-45.6 10.2-68.5 14.9-21.8 4.4-43.7 7.9-65.6 11.5-9.3 1.5-18.6 3-28.1 2.5-6.4-0.4-11.5-2.7-15.1-8.2-8-12.2-9.4-25.7-6.8-39.5 3.3-18 13.7-33.1 21.6-49.3 5-10.2 12.6-19 14.3-30.8 1.5-10.4-0.4-15.6-10.4-18.1-10.4-2.6-20.6-6.9-30.5-5.4h-5.5c-25.4 0.4-38.1 10.8-46.7 34-5.5 15-5.6 30.8-7 46.4-1.4 15.5-4 30.5-9.1 45.2-6.9 19.7-18.4 35.9-35.2 48.5-14.6 11-31 18.2-48.1 24.1-33.7 11.6-65.1 28-95.8 45.9-21.5 12.5-41.7 27.1-61.3 42.4-8.6 6.7-16.6 14.1-24.1 22-3.2 3.4-5.8 7.1-7.7 11.3-2.2 5-0.7 7.1 4.7 6.9z" fill="#fff"/><path class="st7" d="m2254.8 747.7c1.9 0.5 4 0.5 5.9 0.7v-0.2c1.1 0 2.3 0.2 3.4 0 1.4-0.2 2.7-0.7 4.1-1.2 18-5.9 32.2-16.9 43-32.1 4.8-6.7 8.1-14.4 10.4-22.4 2.4-8.6-0.4-14.5-8-16-5.3-1-10.5-2.6-15.8-3.5-4.4-0.7-9.5-1.9-13.4 1-6.1 4.6-12.3 9.5-17.2 15.4-11.8 14.3-16 31.9-18.8 49.7-0.7 4.9 1.4 7.3 6.4 8.6z" fill="#fff"/></g></svg>
