<?xml version="1.0" encoding="UTF-8" standalone="no"?>
<svg
   xmlns:dc="http://purl.org/dc/elements/1.1/"
   xmlns:cc="http://creativecommons.org/ns#"
   xmlns:rdf="http://www.w3.org/1999/02/22-rdf-syntax-ns#"
   xmlns:svg="http://www.w3.org/2000/svg"
   xmlns="http://www.w3.org/2000/svg"
   xmlns:sodipodi="http://sodipodi.sourceforge.net/DTD/sodipodi-0.dtd"
   xmlns:inkscape="http://www.inkscape.org/namespaces/inkscape"
   width="90mm"
   height="142mm"
   version="1.1"
   viewBox="0 0 90 142"
   id="svg78"
   sodipodi:docname="meat3.svg"
   inkscape:version="1.0.2 (e86c870879, 2021-01-15, custom)">
  <metadata
     id="metadata84">
    <rdf:RDF>
      <cc:Work
         rdf:about="">
        <dc:format>image/svg+xml</dc:format>
        <dc:type
           rdf:resource="http://purl.org/dc/dcmitype/StillImage" />
        <dc:title></dc:title>
      </cc:Work>
    </rdf:RDF>
  </metadata>
  <defs
     id="defs82" />
  <sodipodi:namedview
     pagecolor="#ffffff"
     bordercolor="#666666"
     borderopacity="1"
     objecttolerance="10"
     gridtolerance="10"
     guidetolerance="10"
     inkscape:pageopacity="0"
     inkscape:pageshadow="2"
     inkscape:window-width="1920"
     inkscape:window-height="1017"
     id="namedview80"
     showgrid="false"
     inkscape:zoom="0.38838537"
     inkscape:cx="-45.167362"
     inkscape:cy="501.79048"
     inkscape:window-x="-8"
     inkscape:window-y="-8"
     inkscape:window-maximized="1"
     inkscape:current-layer="svg78" />
  <g
     transform="matrix(0.12758483,0,0,0.12758483,-119.92789,-100.99613)"
     id="g76">
    <g
       id="g8">
      <path
         class="st9"
         d="m 1227.3,1485.6 c 0.6,-3.1 1.1,-6.3 1.8,-9.4 4,-17.5 2.2,-34.4 -4.2,-51 -5.7,-14.8 -13,-28.9 -20.4,-42.8 -18.3,-34.6 -32.5,-70.8 -46,-107.4 -2.7,-7.4 -5.9,-14.7 -9,-22 -7,-16.6 -17.6,-30.6 -30.8,-42.8 -5.8,-5.4 -11.6,-10.8 -17.5,-16.1 -12.7,-11.3 -24.2,-23.7 -34.8,-37.1 -5.4,-6.8 -10.9,-13.5 -16.5,-20.1 -10.2,-12 -21.9,-22.3 -34.9,-31.2 -8.1,-5.5 -16.3,-10.9 -23.6,-17.5 -14,-12.6 -23.4,-27.9 -28.1,-46.1 -4.7,-18.2 -6.8,-36.7 -5.5,-55.5 0.7,-10.4 4.2,-20.2 7.7,-30 1.5,-4.1 4.4,-6.9 8,-9.3 5.5,-3.6 11.4,-6.7 17.4,-9.4 6.5,-3 11.8,-7.3 15.8,-13.3 4.1,-6.1 9.1,-11.6 14.7,-16.4 15.7,-13.8 31.7,-27.4 47.2,-41.5 14.1,-12.8 30.2,-21.6 48.2,-27.5 21.7,-7 43.4,-13.9 64.8,-21.9 16.8,-6.3 34.3,-8.8 52.1,-9.3 35.9,-1.1 71.6,0.3 107.2,5.3 33.8,4.7 67.1,12.2 100,21.5 26.8,7.6 50,21.8 71.3,39.4 7.6,6.2 14.9,12.7 21.9,19.7 4.3,4.3 7.4,9.1 9.2,15.2 2.9,10.1 6.8,20 11.7,29.4 6.7,12.8 10.5,26.6 15.3,40.1 6.9,19.3 14.2,38.5 20.8,58 7.9,23.4 15.1,47.1 19.4,71.4 3.2,18.2 4.8,36.6 1.5,55.1 -1.4,7.6 -4.2,14.4 -8.6,20.7 -7,10.1 -15.5,19 -23.7,28.1 -15.1,17.1 -30.6,33.8 -48.1,48.7 -11.1,9.5 -20.7,20.3 -29.5,31.9 -1.1,0.5 -1.7,-0.1 -2.1,-1 0.1,-5.9 4.3,-10 7.2,-14.4 7.1,-10.5 15.4,-19.8 24.7,-28.6 16.9,-15.9 33.5,-32.2 46.3,-51.7 9.9,-15 16.7,-31.7 21.5,-49.1 2.7,-9.9 0.2,-20 -1.3,-29.8 -4.1,-27.7 -13.5,-54.1 -21.4,-80.8 -6.4,-21.7 -14,-43 -17.1,-65.6 -1.2,-8.9 -5.1,-17.4 -9.3,-25.4 -6.7,-13.1 -12.7,-26.6 -15.5,-41.1 -1,-5.2 -4,-8.8 -7.9,-11.9 -8.9,-7.1 -18.3,-13.3 -28.6,-18.2 -5.3,-2.6 -10.1,-5.8 -14.4,-9.8 -7.7,-7 -16.4,-12.8 -25.7,-17.4 -9.1,-4.4 -19.1,-4.1 -28.9,-4.3 -3,0 -7,-1.9 -8.8,1.6 -1.6,3.2 1.3,6.1 2.9,8.7 22.5,37.1 39.6,76.8 53.1,117.9 6.6,20.2 10.9,40.8 8,62.3 -3.1,22.8 -12.5,43 -25.7,61.5 -14.2,19.8 -28.6,39.6 -37.2,62.5 -10.8,28.7 -18.6,58.2 -20.2,89 -0.4,7.3 0,14.7 1.2,22 0.7,4 0.3,7.9 -1.3,11.6 -2.4,5.7 -4.9,11.4 -7.6,17.1 -0.8,1.7 -1.7,3.4 -3.2,4.6 -7.8,6 -14.8,12.9 -22.2,19.3 -6,5.2 -14,6.3 -21.6,7.8 -12.3,2.4 -24.7,2.6 -37.1,-0.3 -13.2,-3.1 -26.4,-3.2 -39.9,-1.7 -8.9,1 -17.9,2.2 -27,2.1 -9.3,-0.1 -15.6,-4.6 -20.2,-12.3 -5.5,-9.1 -9.8,-18.7 -14,-28.4 -10.7,-24.5 -24.3,-47.2 -41.3,-67.9 -4.8,-5.8 -9.1,-12 -13.5,-18.2 -1.4,-1.9 -2.6,-4.8 -5.4,-4.3 -3,0.5 -3.7,3.5 -4.1,6.1 -0.1,0.6 -0.3,1.1 -0.5,1.6 -0.3,0.5 -0.8,1.1 -1.3,0.9 -7.5,-3.1 -10.7,-13.7 -6.2,-20.4 0.5,-0.8 1.2,-1.5 1.7,-2.2 5,-6.3 4.7,-10.3 -1.6,-15.4 -2.9,-2.4 -5.5,-5.1 -8.5,-7.5 -3,-2.3 -5.9,-3 -9.4,-0.9 -1.9,1.2 -4.1,1.9 -6.3,2.6 -8.9,2.7 -16.4,1.2 -23,-6 -22.8,-24.8 -49.5,-45.2 -76,-65.9 -4,-3.1 -8.6,-5.4 -12.5,-8.7 -2.5,-1.7 -4.8,-3.6 -7.6,-5.6 2.5,1.9 4.5,3.4 6.6,5 0.4,0.3 0.9,0.6 1.3,0.9 0.5,0.3 0.9,0.6 1.3,1 9.2,8.1 17.2,17.5 26,25.9 17.2,16.4 35.1,31.8 54,46.4 17.8,13.8 32.6,30.8 45.8,49.1 15.8,21.9 31,44.1 45.5,66.9 9.5,15 15.6,31.8 22.5,48.1 4.3,10.1 8.9,20 15.4,28.7 -14,-29.6 -27.5,-59.7 -41.8,-89.4 -7.6,-15.9 -16,-31.6 -25.4,-46.7 -1.1,-1.9 -2.9,-3.7 -1,-6.1 3.5,0.3 4.9,3.2 6.8,5.4 7.2,8.5 13.3,17.8 19.6,27 13.1,19 25.2,38.5 36.5,58.6 15.2,27 25.2,56 32.9,85.9 4.8,18.6 8.7,37.4 11.6,56.5 2.7,17.9 2.9,35.7 0.6,53.5 -0.3,2.2 -1.9,5.4 1.1,6.5 2.4,0.9 4.5,-1.5 6.2,-3.2 2.8,-2.8 4.2,-6.3 4.2,-10.2 0,-5.1 0.3,-10.2 -0.6,-15.2 -3.6,-21.6 -4.8,-43.4 -6.2,-65.3 -1.2,-20.3 -5.6,-40.3 -11.3,-59.9 -1.7,-5.7 -0.8,-7.1 5.2,-8.5 18.5,-4.3 36.8,-1.3 55.1,1.3 4.3,0.6 8.6,1.5 12.9,1.9 11.8,1.2 22.4,5 31.4,12.9 4.8,4.2 10,4.8 15.7,2.2 7.8,-3.5 16.3,-4.8 24.5,-6.8 6.4,-1.6 11.7,1.5 13.9,7.7 3.9,11 4.5,22.5 4.1,34.1 -0.2,7.4 -1,14.7 -1.7,22 -1.2,12.2 -2.8,24.4 -2.2,36.7 0.9,21.5 -5.2,41.1 -15.9,59.3 -11.7,19.8 -23.1,39.8 -33.8,60.2 -6.6,12.6 -17.2,22.4 -27.4,32.2 -6.2,6 -12.4,12.1 -19.9,16.7 -6.5,4 -13.2,6.4 -20.9,5.2 -1.7,-0.3 -3.4,-0.4 -5.1,-0.5 -23.4,-2.5 -38.5,-20.7 -37,-44.4 0.7,-10.1 3,-19.7 6.6,-29.2 2.9,-7.6 5.2,-15.4 6,-23.5 0.5,-4.8 -1.2,-6.7 -6.2,-7.6 -4.5,-0.8 -5.7,1.9 -6.2,5.4 -1.6,9.9 -3.5,19.7 -4.3,29.7 -1.5,19.7 -7.9,38 -14.5,56.3 -0.4,1.1 -0.9,2.1 -1.3,3.1 -6.3,15 -3.1,25 10.7,34.1 6.3,4.1 12.9,7.9 19.7,11.2 8.8,4.3 16.5,10.1 22.7,17.5 12.2,14.6 27.6,25 43.3,35.1 4.8,3.1 7.5,2.4 11.1,-2.2 2.9,-3.7 5.8,-7.4 9.1,-10.9 3.7,-3.9 6.4,-8.5 7.4,-13.8 3,-15.6 11.1,-28.3 22,-39.5 2.8,-2.8 5.4,-5.8 7.8,-8.9 9.9,-12.4 22.7,-21.2 35.9,-29.8 16.4,-10.7 33.4,-20.6 49.5,-31.8 5.2,-3.6 8.2,-7.4 7.5,-14.4 -1.7,-15.5 -2.1,-31.2 -3.6,-46.8 -3.1,-32.2 -3.9,-64.5 2.3,-96.4 3.3,-16.8 7,-33.5 9.3,-50.6 2,-14.9 4.4,-29.8 7.2,-44.7 0.9,-4.7 2.2,-9.2 3.9,-13.6 0.8,-2.1 1.5,-4.4 4,-5.2 1,0.1 1.8,0.4 1.6,1.7 -7.9,20.1 -9.2,41.4 -10.8,62.6 -1.6,22.2 -0.3,44.5 -0.8,66.7 -0.4,17.7 -0.6,35.4 -1.1,53.1 -0.3,11.5 0.9,23 1.9,34.4 0.8,9.4 1,18.8 -0.5,28.2 -1.9,12.1 -7.4,22 -16.9,29.8 -6.4,5.3 -13.3,9.9 -19.9,14.9 -21.6,16.2 -42.5,33.2 -60.2,53.8 -2.4,2.8 -5.2,5.5 -8.1,7.9 -9.3,7.6 -15.9,17.2 -19.8,28.4 -3.4,10.1 -9,18.5 -16.3,26.2 -4.4,4.6 -8,10 -12,15 -6,7.4 -11,8.2 -19.1,3.1 -5,-3.1 -9.3,-7 -13.6,-11.1 -4.7,-1.4 -7.5,-5.2 -10.9,-8.3 -2.8,-3 -5.8,-5.9 -8.6,-8.9 -13.9,-12.6 -27,-25.9 -40.6,-38.8 -3.1,-2.9 -7.4,-4.7 -9.2,-8.9 -5.9,-5 -12.7,-8.7 -19.1,-13 -3.4,-2.3 -6.9,-4.7 -10.2,-7.1 -3.6,-2.7 -5,-6.4 -4.7,-10.9 0.3,-4.8 1.9,-9.2 3.7,-13.5 7.5,-19.1 13.8,-38.6 16.8,-59 1.8,-12.3 4,-24.5 6.1,-36.7 0.3,-1.8 0.2,-3.8 1.4,-5.4 3,2.5 2.5,6.2 2.7,9.4 1.5,32.6 -4.6,63.8 -18.5,93.4 -1,2.1 -3.6,5.2 -1.1,6.5 3.3,1.7 4.4,-2.5 5.6,-4.8 6.6,-13 12,-26.4 14.2,-41 0.3,-2.2 0.7,-4.5 1.2,-6.7 3.5,-13.8 6,-27.6 5.8,-41.9 -0.1,-10.2 5.6,-13.4 15,-9.8 1.9,0.7 3.8,1.6 5.8,2.3 1.3,0.4 2.7,0.9 3.3,-0.8 0.5,-1.5 -0.5,-2.5 -1.7,-3.2 -1.1,-0.7 -2.5,-1 -3.7,-1.4 -3.6,-1.3 -6.8,-3.2 -9.8,-5.6 -4.5,-3.6 -5.4,-7.1 -3.4,-12.5 1.2,-3.2 2.9,-6.1 4.3,-9.2 3.2,-7.1 4,-14.5 3,-22.1 -0.1,-1.1 -0.2,-2.5 -1.6,-2.6 -1.3,-0.2 -2,1.1 -2.3,2.1 -1.7,5.2 -3.4,10.4 -5.8,15.3 -1.9,4.7 -2.8,10.3 -8.5,12 z"
         fill="#d44a4c"
         id="path2" />
      <path
         class="st10"
         d="m 1288.5,1707.8 c 3.3,3.1 6.6,6.2 10,9.2 -1.3,0.2 -1.7,1.2 -2.2,2.3 -10.2,21.2 -21.1,42.1 -33.3,62.2 -9.2,15.2 -20.1,29.2 -31.8,42.5 -10.4,11.9 -21.6,23.1 -33.1,34 -7.3,6.9 -15.4,12.7 -23.1,19 -3.6,2.9 -7.2,2.4 -11,0.3 -8.1,-4.3 -16.4,-8.6 -24.6,-12.7 -9.8,-4.9 -19.7,-9.5 -30.1,-12.8 -1,-0.3 -2.2,-0.6 -3.2,-1.8 1.5,-2.5 3.8,-4 6,-5.7 17.3,-12.8 32.1,-27.9 44.2,-45.7 8.6,-12.6 16,-26 23.1,-39.5 14.1,-26.7 25.5,-54.6 38.5,-81.8 4,-8.3 8.3,-16.5 11.4,-25.2 8.1,5.3 14.6,12.3 21.5,18.9 9.7,9.4 19.5,18.7 29.2,28 -15.6,34.1 -31.3,68.2 -55.9,97.2 -14.3,16.8 -29.1,33.1 -45,48.4 -3.3,3.2 -7.2,5.4 -10.8,8.2 -2.7,2.1 -4.7,4.8 -2.6,8.2 2.2,3.7 5.8,3.2 9,1.5 5,-2.8 9.3,-6.5 13,-10.8 17.9,-20.9 34.1,-43.1 50,-65.5 13.7,-19.4 24.4,-40.7 37.5,-60.5 3.9,-6.2 7.8,-12.7 13.3,-17.9 z"
         fill="#eb948a"
         id="path4" />
      <path
         class="st3"
         d="m 1227.3,1485.6 c 7,-7.4 9.5,-17 12.8,-26.1 0.3,-0.9 0.3,-1.9 0.6,-2.7 0.8,-2 2.9,-2.7 4.6,-2.8 2.1,-0.2 1.6,2.1 1.9,3.5 1.5,9 0.6,17.6 -3.6,25.8 -1.4,2.7 -2.7,5.4 -3.9,8.1 -1.6,3.6 -1,8 2.8,10.4 4,2.6 7.8,5.3 12.5,6.2 2.4,0.5 4.2,1.7 4.5,4.4 0.3,3.4 -1.6,4.9 -4.9,3.7 -2.6,-1 -5.2,-2.2 -7.8,-3.3 -7.6,-3.1 -12.3,-0.3 -12.4,7.8 0,10 -0.1,19.9 -2.6,29.6 -2.8,10.9 -4.3,22.2 -7.1,33.1 -2.8,10.8 -7.6,20.9 -12.6,30.8 -0.6,1.2 -1.5,2.2 -2.4,3.2 -1.4,1.6 -3.2,2.1 -5,0.9 -1.7,-1.1 -1.7,-2.9 -1,-4.5 0.8,-1.7 1.8,-3.3 2.5,-5.1 5.1,-13.3 10.9,-26.5 14.2,-40.5 2.6,-10.6 3.1,-21.5 3.6,-32.4 0.5,-9.7 1.2,-19.5 -0.8,-29.2 -0.2,-7.3 0.9,-14.3 4.1,-20.9 z"
         fill="#b73237"
         id="path6" />
    </g>
    <path
       class="st32"
       d="m 1495.5,1303.9 -1.5,-1.2 c -0.3,-5.1 1.8,-8.9 6.3,-11.4 0.5,0.4 1.1,0.9 1.6,1.3 -2.1,3.8 -4.2,7.5 -6.4,11.3 z"
       id="path10" />
    <g
       id="g22">
      <path
         class="st4"
         d="m 1500.3,1291.3 c -2.9,3.4 -4.8,7.3 -6.3,11.4 -3.6,5.7 -5.4,12 -6.5,18.5 -2.8,16.5 -5.9,33 -7.9,49.6 -1.6,13.1 -3.3,26.1 -7.1,38.8 -4.8,16.1 -4.5,32.7 -5.6,49.3 -1.2,19.1 0.8,38 2.3,57 1.3,16 2.2,32 3.5,48 0.2,3 -1,5 -3.1,6.9 -4.8,4.2 -10.1,8 -15.6,11.2 -15,8.4 -28.5,19.1 -43.5,27.5 -14,7.9 -24.6,19.1 -34.9,30.9 -3.7,4.3 -7.4,8.5 -11.1,12.8 -6.4,7.4 -11.3,15.5 -13.3,25.2 -0.7,3.5 -1.9,6.9 -3.1,10.3 -1.3,3.6 -3.1,6.9 -5.9,9.5 -4,3.8 -7.3,8.2 -10.4,12.6 -2.7,3.8 -4.8,4.4 -9.1,2.7 -0.9,-0.3 -1.7,-0.8 -2.5,-1.3 -16.5,-10.6 -32.6,-21.7 -45.4,-37.1 -5.4,-6.6 -12.4,-11.5 -20.1,-15.4 -6.8,-3.4 -13.3,-7.1 -19.7,-11.1 -6.4,-4 -11.2,-9.5 -14.6,-16.1 -1.9,-3.7 -2.4,-7.3 -1,-11.4 3.7,-10.3 8,-20.3 11.2,-30.8 3.7,-12.1 6.8,-24.2 7.8,-36.9 0.7,-9.2 2.4,-18.3 3.8,-27.4 0.3,-2.2 1,-4.4 1.5,-6.6 0.6,-2.6 2,-3.7 4.9,-3.2 9.8,1.7 10.6,2.7 9.1,12.5 -1.1,7.5 -3.6,14.6 -6.2,21.7 -3.4,9.4 -6.1,19.1 -6,29.2 0.1,12.9 4,24.5 13.8,33.5 4.8,4.5 10.4,7.4 17.1,7.8 3.9,0.2 7.9,0.8 11.8,1.2 4.4,0.4 8.6,-0.5 12.6,-2.4 4.8,-2.2 9.2,-5.1 13.2,-8.6 10.6,-9.3 20.8,-19.2 29.9,-30.1 4.8,-5.6 9.1,-11.6 12.3,-18.3 7.9,-16.3 16.7,-32.1 26.5,-47.4 5.8,-9.1 10.1,-19 14.2,-28.9 4.2,-9.9 5.1,-20.5 5.1,-31 0,-17.9 1.8,-35.7 3.6,-53.5 1.5,-14.7 1.1,-29.4 -3.1,-43.7 -1.9,-6.5 -5.9,-9 -12.4,-7.5 -8.6,2 -17.4,3.6 -25.5,7.2 -5.3,2.4 -10.2,1.9 -14.7,-2 -9.4,-8.3 -20.5,-12.1 -32.9,-13.6 -15,-1.8 -29.8,-4.5 -44.9,-5.3 -8.4,-0.4 -16.5,1.6 -24.7,3 -3.1,0.5 -3.3,1.3 -1.8,4.2 2.5,4.8 3.3,10 4.4,15.2 2.9,14.2 6.1,28.4 7.3,42.9 0.7,8.6 1.1,17.3 1.5,26 0.7,14 3.1,27.7 4.8,41.6 0.6,5.3 0.9,10.5 1,15.8 0.1,6.5 -2.4,11.7 -8,15.3 -1.1,0.7 -2.3,1.3 -3.6,1.5 -3.3,0.6 -4,0.1 -3.7,-3.3 1.1,-9.5 2.4,-19.1 2.4,-28.7 0,-4.5 0.3,-9.1 -0.2,-13.5 -5.1,-43.8 -15.2,-86.5 -31.5,-127.5 -7.1,-17.9 -16.7,-34.6 -26.7,-51 -13.1,-21.6 -26.9,-42.7 -42.3,-62.8 -2.4,-3.1 -4.8,-6.2 -7.9,-8.8 v 0.1 c -1.7,-4.2 0.3,-7.3 3.2,-10 1.7,-1.6 3.3,-1.6 4.9,0.2 0.5,0.6 1,1.1 1.5,1.7 11.3,15.3 23,30.4 33.9,45.9 11.4,16.2 19.1,34.6 27.5,52.5 2.6,5.6 5.4,11.2 8.2,16.7 5.6,11.3 14.6,15.6 26.9,14.1 8.2,-1 16.5,-1.5 24.8,-2.5 10.8,-1.3 21.5,-1.3 32,1.4 17.7,4.5 35.2,2.9 52.5,-1.8 4.7,-1.2 8.7,-3.7 12,-7.1 5.4,-5.6 11.1,-10.8 17.5,-15.2 2.1,-1.5 3.5,-3.3 4.5,-5.6 1.1,-2.6 2.3,-5.2 3.6,-7.7 4.4,-8.4 6.2,-16.9 4.8,-26.6 -2.4,-16.4 -0.1,-32.7 3.3,-48.8 4,-18.8 8.7,-37.5 15.6,-55.4 8,-20.7 19.8,-39.4 33.1,-57.1 10.1,-13.5 18.7,-27.9 24.5,-43.8 8.2,-22.3 8.5,-44.8 2.8,-67.8 -9.7,-39.2 -26.5,-75.6 -44.1,-111.7 -4.2,-8.6 -9.6,-16.6 -14.4,-25 -1.2,-2.1 -2.4,-4.3 -3.2,-6.6 -1.1,-3.4 -0.3,-4.6 3.3,-4.8 5.8,-0.2 11.7,0.2 17.5,0.1 12.4,-0.1 23.4,4.5 32.8,12 13.4,10.7 27.7,20.1 42.7,28.4 6.6,3.7 12.5,8.5 18,13.7 1.6,1.5 2.5,3.1 2.9,5.2 2.7,13.8 7.3,26.8 13.8,39.3 7,13.5 12,27.5 14.1,42.7 1.5,11 4.9,21.7 8.5,32.2 4.2,12.3 6.9,25 11.1,37.4 7.1,21.1 12.9,42.5 16.6,64.5 2.8,16.4 3,32.4 -4.7,48 -6,12.1 -10.5,25.1 -18.4,36.2 -4.7,6.6 -10,12.8 -15.6,18.6 -11.8,12.2 -23,25 -35.8,36.2 -10.7,9.7 -18,22.2 -25,34.8 z"
         fill="#fde6d5"
         id="path12" />
      <path
         class="st16"
         d="m 1286.3,1174.1 c -6.4,-20.7 -12.4,-41.5 -22.2,-61 -5.4,-10.8 -11.9,-21 -19.2,-30.6 -12.5,-16.4 -20,-34.9 -24.6,-54.7 -2,-8.5 -2.2,-17.2 0.7,-25.7 1.8,-5.4 3.4,-10.8 4.2,-16.4 1.1,-7.5 -1.5,-14.6 -3.4,-21.6 -6.5,-24.9 -17.4,-47.7 -32.9,-68.3 -6.9,-9.2 -13.5,-18.6 -20.4,-27.8 -4.5,-6.1 -9.3,-11.9 -14.9,-17 -1.1,-1 -2.2,-2.1 -3.1,-3.3 -1.8,-2.4 -1.5,-4 1.1,-5.6 2.1,-1.3 4.3,-2.4 6.6,-3.2 11.3,-3.7 22.1,-8.5 32.8,-13.7 10.6,-5.2 21.6,-9 33.5,-9.6 1.9,-0.1 3.8,-0.2 5.6,0 15,1.5 30.1,0.8 45.2,0.9 2.8,0 5.7,-0.1 8.5,0.1 3.3,0.2 4.4,1.6 3.5,4.8 -0.9,3.4 -2.1,6.9 -3.5,10.1 -3.1,7.1 -6,14.3 -9.7,21 -6.8,12.5 -7.4,25.3 -4.5,38.9 2.8,13.1 5.5,26.2 9.5,39 2,6.3 2.6,12.9 2.9,19.5 0.4,7.4 -2,14.1 -5.5,20.5 -5,9.1 -10.4,17.9 -14.7,27.4 -8.1,17.7 -10.7,36 -6.3,55.1 1.5,6.3 3.8,12.2 6.6,18 4,8.1 8,16.2 12.3,24.2 9.9,18.1 13,37.6 13,57.8 0,7 -0.1,13.9 -0.1,20.9 -0.2,0.4 -0.4,0.6 -0.6,0.5 -0.3,0.1 -0.4,0 -0.4,-0.2 z"
         fill="#fde6d5"
         id="path14" />
      <path
         class="st3"
         d="m 1030.7,938.3 c -5.8,2.2 -10.4,4.7 -14.3,8.2 -2.9,2.5 -5.9,4.6 -9.5,5.8 -6.3,2.1 -11.9,5.5 -17.3,9.4 -3.4,2.4 -7,4.5 -10.5,6.7 -1.9,1.2 -3.9,2.6 -6.2,0.9 -1.2,-0.9 -1.3,-5.9 -0.2,-7.5 3.9,-5.6 8,-11.3 14.5,-13.9 13.2,-5.5 24.3,-14.2 35.7,-22.5 9,-6.6 18.1,-12.8 26.8,-19.8 4.4,-3.5 8,-7.9 12,-11.9 10.3,-10.1 22.5,-17.2 35.9,-21.8 11.2,-3.9 23.1,-5.2 34.9,-6.2 7.1,-0.6 12.8,2 17.7,7.9 8.5,10.3 13.4,22.1 17,34.6 1.8,6.3 -0.3,10.5 -5.9,14.1 -8,5.2 -17,7.8 -26,10.3 -13.7,3.8 -26.4,9.5 -37.7,18.4 -9.2,7.2 -17.8,15.1 -26.7,22.6 -8.4,7.1 -17.9,12.4 -27.5,17.7 -6.6,3.6 -13,7.6 -20.2,10.1 -0.7,0.3 -1.3,0.7 -2.1,0.9 -4.1,1.2 -5.6,0.1 -5.6,-4.2 0.1,-3.6 0.3,-7.1 0.6,-10.7 0.5,-5.4 1.5,-10.7 4.4,-15.6 3.6,-6 6.1,-12.5 6.6,-19.6 0.4,-4.5 2.2,-8.7 3.6,-13.9 z"
         fill="#b73237"
         id="path16" />
      <path
         class="st3"
         d="m 1298.8,907.1 c -0.2,-5.1 0.7,-10.8 1.1,-16.6 0.5,-8 0,-16.1 1,-24.1 1.1,-9.5 4,-18.3 7.9,-27 0.9,-2 2.3,-3.9 3.8,-5.6 2,-2.3 4.6,-3.4 7.9,-3.3 8.2,0.2 15.9,1.9 23.5,5.2 9,3.9 18.6,6 28.2,8 9.4,2 18.7,4.4 27,9.5 3.5,2.2 6.9,4.7 10,7.4 1.8,1.6 3.4,3.7 4,6.1 1.6,6.4 4.2,12.5 7.3,18.2 6.7,12.1 10.8,25.2 15.3,38.1 5,14.4 9.3,28.9 11.2,44.1 0.6,4.7 -0.3,9.4 0.7,14.1 0.2,1.2 -0.1,2.4 -1.2,2.9 -1.5,0.8 -2.4,-0.5 -3.2,-1.5 -4.2,-5.1 -7.3,-10.9 -10.4,-16.7 -6.7,-12.4 -13.2,-24.9 -21.8,-36.2 -5.2,-6.9 -10.5,-13.8 -16,-20.4 -6.4,-7.8 -12.2,-15.8 -15.1,-25.6 -3.1,-10.4 -11.3,-14.2 -20.8,-15.7 -14.4,-2.3 -28,5 -33.7,18 -2.4,5.5 -5,10.9 -7.8,16.3 -2.2,4.4 -5.2,8.4 -9.9,10.5 -5.9,2.5 -8.2,1.1 -9,-5.7 z"
         fill="#b73237"
         id="path18" />
      <path
         class="st16"
         d="m 1104.6,1155.7 c -13.4,-12.9 -26.4,-25.8 -39.7,-38.3 -14.7,-13.9 -31.2,-25.5 -48.1,-36.6 -9.5,-6.2 -18.8,-12.6 -27.8,-19.5 -6.3,-4.9 -9.8,-11.1 -10.9,-19 -2.2,-16.3 -4.1,-32.6 -5.8,-48.9 -0.2,-1.5 -0.2,-3 -0.2,-4.5 0,-5.9 2.1,-10.2 7.9,-13 9.3,-4.5 17.8,-10.6 26.2,-16.6 1.4,-1 2.7,-2 4.2,-2.9 2.1,-1.2 3.2,-0.8 3.4,1.6 0.4,4.7 -0.1,9.4 -1.6,13.9 -1.8,5.5 -3.7,11.1 -5.6,16.6 -3.9,11.8 -4,24.1 -3.6,36.4 0.1,2.3 0.5,4.5 0.4,6.8 -0.3,6.9 2.3,12.4 7.1,17.2 3.2,3.2 6.5,6.4 10.4,8.7 18.2,10.9 32.9,25.7 46.8,41.5 12.5,14.3 25.3,28.5 36.8,43.7 0.6,0.8 1.2,1.5 1.7,2.2 3.6,4.7 3.4,6.2 -1.6,10.7 z"
         fill="#fde6d5"
         id="path20" />
    </g>
    <g
       fill="#b73237"
       id="g30">
      <path
         class="st3"
         d="m 1275.6,1399.4 c -1.6,-13.8 -6.6,-26.5 -11.5,-39.3 -0.5,-1.4 -1.2,-2.7 -1.5,-4.2 -0.9,-5.5 1.4,-7.9 6.8,-7.2 5.9,0.8 11.9,1.7 17.7,3.2 8.6,2.2 16.9,5 25.3,7.9 3.6,1.3 6,3.6 7.8,6.9 4.9,9.4 8,19.4 11.8,29.2 1.8,4.6 2.2,9.9 0.8,15 -1.5,5.3 -5.1,8.6 -10.6,8.5 -10.5,-0.1 -21,0.1 -31.4,-2.1 -12.1,-2.5 -13.2,-3.5 -15,-15.8 0,-0.6 -0.1,-1.4 -0.2,-2.1 z"
         id="path24" />
      <path
         class="st3"
         d="m 1143.3,1206.9 c 0.9,5.2 5,8.7 7.3,13.2 10.3,20.5 22.3,40 30.9,61.4 4.8,11.8 10.8,23.2 16.2,34.7 5.1,10.7 10.2,21.4 15.2,32.1 0.7,1.5 1.1,3.1 1.7,4.7 -2.4,0.5 -2.8,-1.3 -3.7,-2.4 -6.9,-9 -11.6,-19.4 -16.1,-29.7 -5.7,-12.9 -10.3,-26.2 -17,-38.6 -2.6,-4.8 -5.3,-9.5 -8.3,-14.1 -11.9,-18.3 -24.5,-36.2 -36.8,-54.2 -11.4,-16.7 -24.9,-31.5 -39,-45.9 -7.7,-7.9 -16.3,-14.5 -25.2,-20.8 -12.3,-8.8 -23.1,-19.2 -33.8,-29.8 -6.2,-6.2 -12.9,-12 -19.2,-18.2 -4.9,-4.9 -9.5,-10.1 -14.3,-15.2 -0.5,-0.3 -0.8,-0.7 -1.3,-1 -0.4,-1 -0.2,-1.5 1,-1.3 12.8,7.6 24.6,16.6 35.8,26.3 5,4.3 9.7,8.8 15.1,12.6 12.8,9 23.7,20.2 34.5,31.4 2.9,3 6,5.7 9,8.5 2.2,2.1 4.9,2.9 7.8,2.7 5.6,-0.4 11.3,-1.1 16.1,-4.5 2.9,-2 5.4,-1.5 7.7,0.3 4.5,3.6 9.2,7.2 13.2,11.4 4.4,4.5 4,9.7 -0.6,14.3 -2.1,2.1 -3.2,4.6 -4.5,7.1 -0.8,1.7 -0.9,3.6 0.2,4.8 3,3.3 4.6,7.6 8.1,10.2 z"
         id="path26" />
      <path
         class="st3"
         d="m 1336.9,1318 c -4.9,-0.4 -11.2,0.4 -17.5,1.3 -1.3,0.2 -2.8,0.1 -3.3,-1.5 -0.6,-1.6 0.8,-2.4 1.8,-3.1 1.9,-1.3 3.6,-2.9 5.6,-3.7 5.2,-2.3 9.8,-5.7 14.4,-8.9 3.3,-2.3 6.6,-4.3 10.5,-5.3 3.1,-0.8 5.8,-2.7 8.4,-4.6 1.8,-1.4 2,-3 0.4,-4.8 -2,-2.3 -4.3,-4.2 -6.7,-6 -4.8,-3.6 -7.3,-7.8 -4.9,-14.1 1.1,-2.9 1.6,-6.2 2.8,-9.2 1.8,-4.3 4,-4.9 7.9,-2.5 1.1,0.7 2.2,1.5 3.4,2.1 5.5,2.8 7.5,2 9.5,-4.1 1.6,-5.2 2.3,-10.7 2.6,-16.1 0.5,-7.7 0.9,-15.3 1.4,-23 0.2,-4 1.3,-7.8 2.9,-11.5 2.6,-6 7.1,-9.6 13.8,-10.1 2.5,-0.2 3.5,0.6 2.9,3.2 -1.4,6.4 -2.5,12.9 -3.9,19.4 -2.2,10 -1.9,20.1 -1,30.3 1.4,15.9 -0.2,31.5 -4.4,46.9 -1.4,5.1 -4.6,8.6 -8.7,11.4 -7,4.4 -28.5,12.6 -37.9,13.9 z"
         id="path28" />
    </g>
    <path
       class="st33"
       d="m 1288.5,1707.8 c -1.2,3 -3,5.7 -4.9,8.2 -10.3,13.6 -18.4,28.5 -27.1,43.1 -9.2,15.6 -19.2,30.7 -30.1,45.1 -8.9,11.7 -17.2,23.8 -26.7,35.1 -6.4,7.6 -12.2,15.9 -20.5,21.8 -2.3,1.6 -4.4,3.6 -7.3,4.1 -3.3,0.6 -6.3,-0.6 -7.9,-3.2 -1.7,-2.8 -1.2,-6.2 1.3,-8.8 0.5,-0.5 1.1,-1.1 1.7,-1.4 9.3,-5.3 16.4,-13.2 23.7,-20.8 16.9,-17.5 33.1,-35.6 47.3,-55.5 9.5,-13.3 16.7,-27.8 24,-42.2 5.3,-10.4 10.2,-21 15.3,-31.5 0.6,-1.2 0.8,-2.6 2.5,-2.7 z"
       fill="#fdf3f0"
       id="path32" />
    <g
       fill="#da5659"
       id="g46">
      <path
         class="st34"
         d="m 1369.2,960.9 c -1,-9.9 -4.7,-19.4 -7.1,-29.2 -2.4,-9.4 -6,-18.5 -7.9,-28.1 -0.6,-3.1 -2.1,-6 -3.1,-9 -1.6,-4.7 0.9,-8.7 5.8,-9.4 4.4,-0.6 7.4,2 7.1,7.1 -0.6,7.7 0.6,15.2 2.4,22.3 1.7,6.7 2.7,13.6 4.5,20.3 2.9,10.7 5.4,21.6 6,32.7 0.2,4.2 -0.3,8.7 -1.3,12.8 -2.5,10.4 -5.5,20.6 -9.5,30.7 -4.8,12.3 -6.7,25.3 -6.2,38.7 0.2,4.3 0.1,8.6 0.8,12.9 0.2,0.9 0.2,1.9 -0.4,2.7 -0.3,0.5 -0.7,0.8 -1.3,0.8 -0.7,0 -1.1,-0.5 -1.2,-1 -0.4,-2 -0.9,-4.1 -1,-6.1 -0.3,-17.3 -0.1,-34.4 5.7,-51.1 2.2,-6.2 4.4,-12.5 5.7,-18.9 2.4,-11.1 3.4,-14.3 1,-28.2 z"
         id="path34" />
      <path
         class="st34"
         d="m 1038.4,1047.1 c -0.7,-5.4 2.4,-9.8 7.1,-9.1 8.6,1.2 15.7,-2.8 23.3,-5.4 12.8,-4.4 25.3,-9.4 38.1,-13.5 17.6,-5.7 36,-7.8 54.3,-10.1 2.4,-0.3 4.9,0.1 7.3,0.1 1.7,0.1 3,0.8 3,2.7 0,2.2 -1.7,3.1 -3.5,2.8 -2.7,-0.4 -5.3,0 -7.9,0 -9.7,-0.2 -19,1.7 -28.3,3.9 -12.3,2.9 -24.1,7.1 -35.7,11.8 -15,6.1 -29.7,12.8 -43.5,21.4 -4.1,2.6 -7.9,1.8 -11.6,-0.4 -1.7,-1 -2.8,-2.5 -2.6,-4.2 z"
         id="path36" />
      <path
         class="st34"
         d="m 1238.9,1308.9 c 0.1,3.9 -2.7,4.1 -5.4,4.2 -2.7,0.1 -5.5,-2.1 -6.2,-4.9 -1.4,-5.9 0.5,-11.3 3.7,-16 4.7,-7 10.1,-13.6 16,-19.7 12.2,-12.5 24.1,-25.4 33.7,-40.1 8.2,-12.5 16.6,-25.1 22.6,-38.9 2.7,-6.2 5.1,-12.5 7.3,-19 1.2,-3.7 2.5,-4.8 4.4,-3.8 2.9,1.6 1.7,4 0.6,5.9 -9,16.4 -16.3,33.8 -26,49.9 -9.6,15.8 -20.3,30.7 -31.4,45.5 -0.6,0.7 -0.9,1.6 -1.4,2.4 0,0.2 0,0.4 0.1,0.7 -0.1,0.4 -0.2,0.9 -0.4,1.2 -0.4,0.6 -0.9,1 -1.5,1.1 -0.9,0.2 -1.7,0.5 -2.3,1.1 -1.3,1.1 -2.5,2.3 -3.6,3.7 -4.8,4.5 -8.5,9.8 -11.4,15.7 -1.6,3.1 -2,6 0.4,8.8 0.3,0.4 0.5,0.9 0.6,1.4 0,0.3 0.1,0.5 0.2,0.8 z"
         id="path38" />
      <path
         class="st34"
         d="m 1254.9,1277 c 0.3,-0.4 0.6,-0.9 0.9,-1.3 0.4,-0.4 0.7,-0.8 1,-1.3 4.3,-0.8 7.9,-3.5 11.8,-5.2 12,-5.2 24.4,-9.7 35.8,-16.3 4.1,-2.4 7.7,-5.4 11.4,-8.2 1.1,-0.8 2.2,-2.1 4,-1.3 2.7,1.1 3.4,3.7 1.2,5.9 -2.4,2.4 -5.5,3.9 -8.3,5.8 -14.4,9.8 -30.3,16.6 -45.3,25.3 -9.3,5.4 -16.1,12.8 -20,22.9 -0.5,1.4 -0.9,2.9 -2.2,3.9 -1.8,1.4 -3.7,2.2 -4.8,-0.8 -2.9,-3 -1.6,-6.4 -0.5,-9.5 1.9,-5.4 4.8,-10.2 8.7,-14.4 1.3,-2 3.3,-3.5 4.7,-5.4 0.7,-0.4 1.1,-0.5 1.6,-0.1 z"
         id="path40" />
      <path
         class="st34"
         d="m 1277.4,1424.7 c 5.9,-1.1 11.2,1.1 16.5,2.7 11.7,3.7 23.4,6.6 35.7,7.3 4.9,0.3 9.7,0.4 14.5,0 3.8,-0.3 6.5,1.2 6.4,3.7 -0.1,2.5 -2.8,4.4 -6.4,4.1 -16.2,-1.4 -32.5,-1.3 -48.6,-4.1 -5.8,-1 -11.7,-1.3 -17.6,1 -3.7,1.4 -7.2,-0.5 -8.6,-3.4 -1.5,-3.2 -0.7,-7.1 1.7,-9.4 2,-1.7 4.3,-1.3 6.4,-1.9 z"
         id="path42" />
      <path
         class="st34"
         d="m 1297.6,1545.3 c -6.2,2 -12.1,0.2 -17.9,-2 -2.6,-1 -4.7,-2.9 -4.9,-5.7 -0.2,-2.9 1.5,-5.2 4,-7 2.1,-1.5 3.9,-0.8 5.8,0 2.4,1.1 4.6,2.4 7.2,3.1 11,3 21,-0.1 30.5,-5.5 1,-0.5 1.9,-1.3 2.8,-1.9 2.2,-1.5 3.9,-0.5 5.4,1.2 1.5,1.7 0.7,3.1 -0.5,4.5 -0.5,0.6 -0.9,1.4 -1.5,1.6 -10.2,4.1 -19.2,11.2 -30.9,11.7 z"
         id="path44" />
    </g>
    <path
       class="st3"
       d="m 1218,1364.3 c 4.7,5.3 8.2,9.8 8.9,15.4 1.3,11 4.6,21.7 6,32.7 0.4,3.2 -0.3,6.4 -0.1,9.5 0.1,1.3 -0.8,2.8 -2.2,2.9 -1.3,0.1 -1.6,-1.3 -2,-2.4 -1.2,-3.8 -2.2,-7.5 -2.8,-11.4 -2.1,-13.5 -5.5,-26.9 -6.9,-40.6 -0.2,-1.5 -0.5,-3.1 -0.9,-6.1 z"
       fill="#b73237"
       id="path48" />
    <path
       class="st35"
       d="m 1249.9,1282.3 c -2.4,4.2 -5.6,8 -7.6,12.6 -1.6,3.7 -2.6,7.5 -1.7,11.5 -0.6,0.8 -1.2,1.7 -1.8,2.5 -0.4,-0.3 -0.9,-0.6 -1.3,-0.9 -3.6,-3.1 -3.5,-6.5 -1.4,-10.5 3.3,-6.1 6.9,-11.9 12.4,-16.3 1.1,-0.4 1.6,0 1.4,1.1 z"
       fill="#b73237"
       id="path50" />
    <path
       class="st36"
       d="m 1001,1081.8 c -0.3,0.4 -0.6,0.9 -1,1.3 -3.7,-2.1 -7.3,-4.3 -10.4,-9 5.2,1.8 8.2,4.8 11.4,7.7 z"
       id="path52" />
    <path
       class="st37"
       d="m 1286.3,1174.1 c 0.3,0 0.6,0 0.9,-0.1 0,0.5 -0.1,1.4 -0.1,1.4 -1.1,0.2 -0.8,-0.7 -0.8,-1.3 z"
       id="path54" />
    <path
       class="st36"
       d="m 1000,1083.1 c 0.4,0.3 0.8,0.6 1.3,1 -0.5,-0.4 -0.9,-0.7 -1.3,-1 z"
       id="path56" />
    <g
       id="g66">
      <path
         class="st38"
         d="m 1139.6,1860.6 c -6.2,0.7 -10.3,-4 -8.8,-9.3 0.7,-2.3 1.8,-4.6 2.9,-6.7 6.4,-12.4 13.4,-24.5 21.8,-35.6 18.2,-24 34,-49.4 47.2,-76.4 8.5,-17.4 16.1,-35.3 23.4,-53.3 1,-2.4 1.4,-5.1 2.1,-7.6 1.4,-4.8 5.3,-7.3 9.3,-6 4.6,1.5 6.5,5.4 4.9,10.4 -0.8,2.3 -1.8,4.6 -3.1,6.6 -7.3,10.6 -12.7,22.2 -17.7,34.1 -7.6,18.1 -17.1,35.2 -26.9,52.2 -9.8,17 -19.7,33.9 -30.5,50.2 -6.8,10.2 -12.2,21.2 -17.2,32.4 -0.8,1.9 -1.7,3.8 -2.7,5.6 -1.2,2 -2.9,3.4 -4.7,3.4 z"
         fill="#be4035"
         id="path58" />
      <path
         class="st30"
         d="m 1173.9,848.9 c 1.4,-0.8 2.3,-1.6 3.4,-1.8 11.2,-2.4 20.6,-9.1 31.3,-12.5 0.7,-0.2 1.4,-0.7 2.1,-0.7 7.7,-0.6 15,-3.7 22.7,-4.4 8.2,-0.8 16.2,-3.2 24.1,-5.4 3,-0.8 6.6,-2.6 9.2,-0.2 2.7,2.6 0.6,6.1 -0.3,9 -2.9,9.8 -6.8,19.2 -9.2,29.1 -1.8,7.2 -2.4,14.5 -3.4,21.7 -2.1,14.9 -5.4,29.6 -9,44.2 -1.3,5.1 -2.5,10.2 -3.5,15.4 -0.8,4.2 -2.8,7.8 -5.6,10.9 -2.1,2.3 -3.7,2.3 -5.5,-0.3 -1.4,-2 -2.6,-4.2 -3.4,-6.5 -2.2,-6.6 -4.4,-13.1 -6.3,-19.8 -3.6,-13.3 -8.5,-26 -15.5,-37.9 -7.3,-12.4 -16.7,-23.2 -26,-34 -1,-1.1 -2,-2.3 -2.9,-3.5 -0.7,-0.8 -1.2,-1.8 -2.2,-3.3 z"
         fill="#fff2eb"
         id="path60" />
      <path
         class="st39"
         d="m 1249.9,1282.3 c -0.5,-0.4 -0.9,-0.7 -1.4,-1.1 0.7,-2 2.5,-2.8 4.1,-3.9 0.2,-0.3 0.4,-0.5 0.7,-0.4 0.3,0.1 0.4,0.2 0.4,0.3 -0.7,2 -2,3.7 -3.8,5.1 z"
         fill="#b73237"
         id="path62" />
      <path
         class="st9"
         d="m 1253.7,1277.2 c -0.4,0.1 -0.7,0.1 -1.1,0.1 0.6,-1.2 1.4,-1.3 2.3,-0.3 -0.4,0.1 -0.8,0.1 -1.2,0.2 z"
         fill="#d44a4c"
         id="path64" />
    </g>
    <path
       class="st9"
       d="m 1237.5,1308.1 c 0.4,0.3 0.9,0.6 1.3,0.9 -0.4,-0.4 -0.8,-0.7 -1.3,-0.9 z"
       id="path68" />
    <path
       class="st9"
       d="m 1256.8,1274.4 c -0.3,0.4 -0.6,0.9 -1,1.3 0.4,-0.4 0.7,-0.8 1,-1.3 z"
       id="path70" />
    <path
       class="st30"
       d="m 1264.4,1641.7 c 3.5,0.5 6.9,0.7 10.3,0.7 -3.2,-1.6 -6.7,-2.1 -10.3,-0.7 z"
       id="path72" />
    <path
       class="st30"
       d="m 1314.5,1676.5 c 4.4,-1.5 7.5,-5.4 10.4,-9.1 16.7,-21.6 33.3,-43.3 50,-64.9 18.3,-23.8 36.7,-47.7 49.5,-74.9 10.1,-21.6 19.3,-47.4 25.3,-70.4 7.9,-30.8 0.2,-67.5 2.3,-99.2 4.7,-70.6 57,-127.9 83.2,-193.7 22.1,-55.6 24.7,-117.1 14.4,-175.5 -4.2,-23.5 -8.6,-62.7 -23.5,-82.2 -6.9,-9 -13.7,-9.4 -24.8,-11.6 -7.3,-1.5 -45.6,-3.1 -48.7,-8.5 18.8,33.1 37.8,66.5 49.4,102.8 11.6,36.3 15.4,76.1 3.5,112.4 -11.1,34.1 -35,62.3 -51.4,94.2 -17.9,34.8 -26.4,72.4 -29.3,111.2 -7.9,4 -19.4,12 -25,18.9 -3.5,4.4 -7.3,6.5 -7.9,11.9 7.9,-0.6 15,1.2 22.8,3.3 2.9,0.8 5.9,1.4 8.8,1.8 6.1,2.5 4.6,81.9 3.8,90.9 -4.4,50.6 -34.1,108.4 -63.5,149.1 -21.7,30.1 -53.3,59.1 -89.2,59.4 6.1,3 11.3,10.1 14.8,16.4 5.5,9.7 14.6,21.2 25.1,17.7 z"
       fill="#fff2eb"
       id="path74" />
  </g>
</svg>
